<?xml version="1.0" encoding="UTF-8" standalone="no"?>
<svg
   width="64"
   height="64"
   viewBox="0 0 64 64"
   version="1.1"
   id="svg8"
   xmlns="http://www.w3.org/2000/svg"
   xmlns:svg="http://www.w3.org/2000/svg">
  <defs
     id="defs8" />
  <g
     transform="matrix(0.85547777,0,0,0.85547777,-57.825166,-95.038449)"
     id="g8">
    <circle
       cx="105"
       cy="148.5"
       r="37.405998"
       fill="#ffffff"
       id="circle1" />
    <circle
       cx="105"
       cy="148.5"
       r="36.654999"
       id="circle2" />
    <path
       d="m 82.4,170.28 c -0.37,0.029 -1.573,-1.158 -1.873,-2.061 -0.027,-0.087 -1.48,-8.54 -3.232,-18.784 -3.472,-20.313 -3.26,-18.986 -3.128,-19.57 0.148,-0.657 0.554,-1.147 1.074,-1.3 0.103,-0.03 0.374,-0.062 0.602,-0.072 0.274,-0.013 6.434,0.255 18.171,0.788 l 19.747,0.895 c 8.122,0.363 15.19,0.689 15.347,0.707 1.005,0.12 1.935,0.964 2.242,2.034 0.039,0.134 0.408,2.235 0.822,4.668 0.414,2.433 1.619,9.488 2.678,15.677 2.132,12.452 2.02,11.708 1.849,12.218 -0.178,0.533 -0.5,0.926 -0.929,1.136 -0.315,0.154 -0.474,0.188 -1.081,0.232 -2.03,0.15 -51.292,3.511 -51.384,3.507 A 8.888,8.888 0 0 1 82.4,170.28 Z"
       fill="#ffffff"
       id="path2" />
    <path
       d="m 83.1,169.6 c -0.359,0.028 -1.526,-1.123 -1.816,-1.999 -0.025,-0.084 -1.436,-8.28 -3.134,-18.213 -3.367,-19.695 -3.16,-18.409 -3.033,-18.976 0.144,-0.636 0.537,-1.112 1.042,-1.26 0.1,-0.028 0.362,-0.06 0.583,-0.07 0.266,-0.012 6.239,0.247 17.62,0.764 9.469,0.43 18.084,0.821 19.146,0.868 7.875,0.352 14.728,0.668 14.88,0.686 0.974,0.117 1.876,0.935 2.174,1.972 0.037,0.13 0.396,2.167 0.797,4.526 0.401,2.36 1.57,9.2 2.597,15.2 2.067,12.073 1.957,11.352 1.792,11.847 -0.172,0.517 -0.483,0.898 -0.9,1.101 -0.306,0.15 -0.46,0.183 -1.049,0.226 -1.968,0.145 -49.733,3.404 -49.823,3.4 a 8.607,8.607 0 0 1 -0.877,-0.073 z"
       id="path3" />
    <g
       stroke-width="0.011"
       id="g5">
      <path
         d="m 84.413,136.096 a 9.034,9.034 0 0 1 2,0.053 c 0.355,0.045 0.728,0.103 1.263,0.196 0.423,0.073 0.518,0.089 0.676,0.108 a 6.32,6.32 0 0 0 2.311,-0.13 c 0.111,-0.028 0.28,-0.078 0.364,-0.109 l 0.062,-0.022 -0.072,-0.29 A 16.84,16.84 0 0 0 90.93,135.56 l -0.014,-0.05 0.011,0.05 c 0.009,0.034 0.008,0.05 -0.001,0.047 a 14.242,14.242 0 0 0 -2.492,-0.37 11.13,11.13 0 0 0 -1.085,-0.016 c -0.592,0.043 -1.389,0.237 -2.298,0.56 -0.212,0.075 -0.631,0.24 -0.73,0.287 l -0.083,0.04 z m 9.482,0.196 c 0.979,0.106 2.127,0.201 3.16,0.261 0.954,0.056 1.797,0.084 2.642,0.088 0.414,0.003 0.588,0.001 1.047,-0.008 1.004,-0.02 2.166,-0.026 7.08,-0.042 7.73,-0.024 11.166,-0.05 13.95,-0.107 2.38,-0.048 3.634,-0.119 3.61,-0.205 -0.011,-0.041 -0.339,-0.089 -0.946,-0.136 -1.044,-0.082 -2.912,-0.168 -5.785,-0.266 a 1369.13,1369.13 0 0 0 -11.193,-0.318 c -5.07,-0.132 -6.088,-0.162 -7.122,-0.205 a 36.149,36.149 0 0 0 -1.22,-0.035 c -1.17,-0.018 -2.571,0.02 -3.934,0.104 a 51.11,51.11 0 0 0 -1.578,0.122 c -0.093,0.01 -0.109,0.01 -0.106,0.003 0.002,-0.007 -0.012,-0.01 -0.02,-0.006 -0.004,0.001 0.071,0.165 0.168,0.363 0.146,0.298 0.174,0.361 0.161,0.368 l -0.014,0.008 z"
         fill-opacity="0.992"
         id="path4" />
      <path
         d="m 84.077,135.85 a 9.034,9.034 0 0 1 2,0.053 c 0.355,0.045 0.727,0.103 1.262,0.196 0.424,0.073 0.519,0.089 0.676,0.108 a 6.32,6.32 0 0 0 2.312,-0.13 c 0.11,-0.028 0.279,-0.078 0.363,-0.108 l 0.062,-0.023 -0.071,-0.29 a 16.84,16.84 0 0 0 -0.087,-0.342 l -0.015,-0.05 0.012,0.05 c 0.008,0.034 0.007,0.05 -0.002,0.047 a 14.242,14.242 0 0 0 -2.492,-0.37 11.13,11.13 0 0 0 -1.084,-0.016 c -0.593,0.043 -1.39,0.237 -2.299,0.56 -0.211,0.075 -0.63,0.24 -0.729,0.287 l -0.083,0.04 z m 9.482,0.196 c 0.978,0.106 2.126,0.201 3.16,0.261 0.954,0.056 1.796,0.084 2.642,0.089 0.414,0.002 0.588,0 1.046,-0.009 1.005,-0.02 2.167,-0.026 7.081,-0.042 7.73,-0.024 11.166,-0.05 13.95,-0.107 2.38,-0.048 3.634,-0.119 3.61,-0.205 -0.012,-0.041 -0.339,-0.089 -0.947,-0.136 -1.043,-0.082 -2.912,-0.168 -5.785,-0.266 a 1369.13,1369.13 0 0 0 -11.193,-0.318 c -5.069,-0.132 -6.087,-0.161 -7.121,-0.205 a 36.149,36.149 0 0 0 -1.22,-0.035 c -1.17,-0.018 -2.571,0.02 -3.935,0.104 a 51.09,51.09 0 0 0 -1.578,0.122 c -0.092,0.01 -0.108,0.01 -0.106,0.003 0.003,-0.006 -0.011,-0.01 -0.02,-0.006 -0.004,0.002 0.072,0.165 0.169,0.363 0.145,0.298 0.173,0.361 0.16,0.368 l -0.014,0.008 z"
         fill="#ffffff"
         id="path5" />
    </g>
    <g
       fill="#ffffff"
       aria-label="JUHE"
       id="g6">
      <path
         d="m 93.1,141.427 q 0,0.132 -0.075,0.234 -0.067,0.092 -0.161,0.184 -0.086,0.092 -0.17,0.204 -0.086,0.102 -0.115,0.255 h -0.028 q -0.076,-0.01 -0.161,-0.01 -0.076,-0.01 -0.152,-0.01 -0.398,0 -0.777,0.061 -0.379,0.061 -0.777,0.102 -0.076,0.215 -0.161,0.286 -0.085,0.061 -0.161,0.133 -0.067,0.071 -0.114,0.235 -0.047,0.153 -0.047,0.56 0,0.43 0.038,0.838 0.038,0.408 0.038,0.826 0,0.337 -0.057,0.674 -0.048,0.337 -0.048,0.684 0,0.439 0.057,0.878 0.057,0.428 0.057,0.877 0,0.541 0.066,1.072 0.067,0.52 0.067,1.061 0,0.154 -0.038,0.45 -0.038,0.295 -0.104,0.622 -0.057,0.316 -0.133,0.602 -0.066,0.276 -0.133,0.388 -0.095,0.163 -0.256,0.235 -0.16,0.071 -0.284,0.204 -0.076,0.071 -0.17,0.214 -0.095,0.143 -0.2,0.296 -0.094,0.143 -0.199,0.266 -0.104,0.112 -0.19,0.132 -0.066,0.082 -0.132,0.174 -0.057,0.081 -0.133,0.163 -0.094,0.092 -0.123,0.153 -0.028,0.051 -0.057,0.092 -0.028,0.03 -0.085,0.051 -0.047,0.01 -0.19,0.02 -0.208,0.02 -0.407,0.082 -0.19,0.061 -0.389,0.133 -0.189,0.061 -0.388,0.112 -0.19,0.061 -0.398,0.061 -0.398,0 -0.749,-0.122 -0.35,-0.133 -0.701,-0.337 -0.123,-0.071 -0.209,-0.102 -0.075,-0.04 -0.142,-0.071 -0.066,-0.041 -0.142,-0.103 -0.066,-0.071 -0.161,-0.193 -0.199,-0.266 -0.436,-0.45 -0.237,-0.183 -0.493,-0.387 -0.132,-0.102 -0.208,-0.266 -0.076,-0.173 -0.123,-0.367 -0.038,-0.194 -0.057,-0.388 -0.01,-0.204 -0.01,-0.367 0,-0.194 0.01,-0.419 0.019,-0.235 0.057,-0.46 0.037,-0.234 0.094,-0.448 0.067,-0.215 0.161,-0.388 l 0.2,-0.337 q 0.094,-0.153 0.208,-0.245 0.114,-0.092 0.265,-0.132 0.152,-0.052 0.389,-0.052 0.341,0 0.578,0.041 0.246,0.041 0.426,0.164 0.18,0.122 0.304,0.347 0.123,0.224 0.227,0.592 0.048,0.173 0.076,0.357 0.028,0.173 0.028,0.347 0,0.194 -0.066,0.398 -0.057,0.204 -0.246,0.275 l -0.161,0.215 q -0.086,0.102 -0.162,0.224 -0.066,0.113 -0.123,0.245 -0.047,0.123 -0.047,0.255 0,0.276 0.16,0.44 0.172,0.152 0.399,0.234 0.237,0.071 0.474,0.092 0.246,0.01 0.388,0.01 0.2,0 0.37,-0.102 0.17,-0.102 0.35,-0.173 0.162,-0.062 0.342,-0.103 0.18,-0.05 0.35,-0.102 0.171,-0.06 0.332,-0.142 0.161,-0.082 0.294,-0.225 0.218,-0.796 0.246,-1.633 0.038,-0.847 0.038,-1.674 -0.01,-0.184 -0.038,-0.235 -0.019,-0.06 -0.047,-0.081 -0.028,-0.03 -0.047,-0.062 -0.02,-0.03 -0.02,-0.153 0,-0.173 0.039,-0.347 0.047,-0.183 0.047,-0.367 0,-0.296 -0.057,-0.572 -0.047,-0.285 -0.047,-0.581 0,-0.582 0.075,-1.143 0.086,-0.572 0.086,-1.154 0,-0.122 -0.067,-0.224 -0.056,-0.113 -0.056,-0.235 0,-0.092 0.047,-0.163 0.047,-0.082 0.047,-0.174 0,-0.092 -0.057,-0.235 -0.056,-0.143 -0.132,-0.306 -0.067,-0.163 -0.142,-0.326 -0.067,-0.174 -0.086,-0.307 -0.028,-0.214 -0.075,-0.326 -0.048,-0.123 -0.124,-0.174 -0.075,-0.061 -0.199,-0.071 -0.123,-0.02 -0.312,-0.041 -0.285,-0.03 -0.569,-0.03 -0.275,-0.01 -0.56,-0.01 -0.141,0 -0.217,-0.021 -0.066,-0.02 -0.114,-0.061 -0.038,-0.041 -0.076,-0.113 -0.038,-0.071 -0.113,-0.183 -0.105,-0.143 -0.2,-0.307 -0.094,-0.163 -0.094,-0.367 0,-0.163 0.076,-0.265 0.085,-0.113 0.208,-0.174 0.123,-0.071 0.265,-0.092 0.143,-0.03 0.266,-0.03 0.227,0 0.455,0.03 0.227,0.03 0.464,0.03 0.209,0 0.332,-0.05 0.132,-0.051 0.218,-0.102 0.095,-0.062 0.19,-0.113 0.094,-0.05 0.236,-0.05 0.247,0 0.484,0.06 0.246,0.062 0.492,0.062 0.133,0 0.256,0.04 0.133,0.031 0.256,0.082 0.133,0.041 0.256,0.082 0.123,0.03 0.256,0.03 0.218,0 0.417,-0.081 0.208,-0.092 0.426,-0.092 0.17,0 0.332,0.03 0.162,0.03 0.322,0.062 0.19,0.04 0.341,0.061 0.162,0.02 0.285,0.082 0.132,0.051 0.227,0.173 0.104,0.113 0.18,0.347 0.029,0.092 0.029,0.205 z m -6.188,-0.296 q 0,-0.051 -0.047,-0.102 -0.038,-0.051 -0.095,-0.051 -0.095,0 -0.114,0.112 -0.019,0.112 -0.019,0.194 0.067,0 0.17,-0.02 0.103,-0.02 0.105,-0.133 z m 17.846,0.032 q 0,0.123 -0.085,0.214 -0.085,0.082 -0.208,0.143 -0.114,0.062 -0.237,0.113 -0.123,0.051 -0.209,0.092 -0.076,0.04 -0.133,0.091 l -0.104,0.113 q -0.047,0.05 -0.114,0.091 -0.056,0.041 -0.151,0.072 -0.123,0.03 -0.218,0.03 -0.095,0 -0.18,0.021 -0.085,0.01 -0.152,0.071 -0.066,0.062 -0.132,0.215 -0.057,0.132 -0.086,0.316 -0.019,0.174 -0.066,0.337 -0.047,0.163 -0.142,0.276 -0.086,0.112 -0.275,0.112 0,0.112 0.066,0.235 l 0.152,0.224 q 0.085,0.112 0.152,0.235 0.066,0.112 0.066,0.224 0,0.123 -0.048,0.235 -0.048,0.112 -0.047,0.235 l -0.01,0.622 q -0.009,0.205 0.067,0.409 0.085,0.194 0.085,0.408 0,0.122 -0.047,0.245 -0.048,0.112 -0.048,0.245 0,0.428 0.076,0.857 0.086,0.419 0.086,0.868 0,0.296 -0.048,0.643 -0.047,0.337 -0.227,0.571 0.01,0.143 0.057,0.245 0.047,0.092 0.094,0.204 0.048,0.102 0.086,0.235 0.047,0.123 0.047,0.327 0,0.183 -0.038,0.49 -0.028,0.296 -0.114,0.581 -0.085,0.276 -0.237,0.49 -0.142,0.204 -0.37,0.204 h -0.037 q -0.01,-0.01 -0.028,-0.01 l -0.01,0.061 v 0.031 q 0,0.143 0.076,0.255 0.085,0.112 0.085,0.255 0,0.072 -0.085,0.184 -0.076,0.112 -0.19,0.235 -0.113,0.122 -0.237,0.235 -0.113,0.112 -0.19,0.193 -0.084,0.092 -0.132,0.184 -0.038,0.082 -0.085,0.153 -0.038,0.062 -0.114,0.113 -0.066,0.04 -0.208,0.071 -0.247,0.051 -0.436,0.153 -0.19,0.102 -0.37,0.214 -0.18,0.102 -0.388,0.174 -0.209,0.082 -0.503,0.082 -0.16,0 -0.312,-0.041 -0.152,-0.041 -0.304,-0.092 -0.151,-0.061 -0.312,-0.102 -0.152,-0.041 -0.304,-0.041 -0.123,0 -0.246,0.02 -0.114,0.01 -0.237,0.01 -0.095,0 -0.152,-0.01 -0.047,-0.01 -0.113,-0.081 -0.048,-0.062 -0.152,-0.113 -0.095,-0.05 -0.209,-0.091 -0.113,-0.051 -0.227,-0.082 -0.114,-0.04 -0.19,-0.061 -0.17,-0.051 -0.331,-0.204 -0.152,-0.154 -0.285,-0.347 -0.123,-0.205 -0.227,-0.419 -0.095,-0.214 -0.152,-0.388 -0.113,-0.347 -0.16,-0.704 -0.048,-0.367 -0.077,-0.725 -0.028,-0.367 -0.066,-0.724 -0.028,-0.368 -0.114,-0.725 -0.038,-0.143 -0.085,-0.286 -0.038,-0.153 -0.038,-0.306 0,-0.112 0.02,-0.214 l 0.037,-0.225 q 0.076,-0.428 0.114,-0.867 0.047,-0.44 0.047,-0.878 0,-0.582 -0.057,-1.153 -0.047,-0.572 -0.047,-1.154 v -0.214 q 0,-0.102 0.01,-0.214 0.018,-0.204 0.075,-0.398 0.067,-0.194 0.067,-0.398 0,-0.072 -0.02,-0.133 l -0.037,-0.133 q -0.114,-0.265 -0.133,-0.48 -0.019,-0.224 -0.038,-0.51 -0.038,-0.439 -0.17,-0.622 -0.124,-0.184 -0.323,-0.266 -0.19,-0.081 -0.426,-0.132 -0.228,-0.062 -0.483,-0.266 -0.076,-0.05 -0.133,-0.122 -0.048,-0.082 -0.048,-0.174 0,-0.163 0.162,-0.296 0.17,-0.132 0.398,-0.214 0.228,-0.082 0.454,-0.122 0.228,-0.051 0.351,-0.051 0.152,0 0.284,0.04 0.143,0.041 0.294,0.041 0.304,0 0.588,-0.071 0.284,-0.082 0.587,-0.082 0.124,0 0.38,0.051 0.255,0.051 0.511,0.153 0.256,0.092 0.446,0.235 0.199,0.133 0.199,0.306 0,0.225 -0.133,0.429 -0.123,0.194 -0.313,0.377 -0.19,0.183 -0.417,0.378 -0.218,0.194 -0.407,0.419 -0.19,0.224 -0.322,0.51 -0.124,0.275 -0.124,0.622 0,0.205 0.01,0.419 0.019,0.204 0.019,0.408 0,0.408 -0.076,0.806 -0.066,0.399 -0.066,0.817 0,0.337 0.085,0.612 0.095,0.266 0.095,0.419 0,0.163 -0.038,0.306 -0.029,0.133 -0.029,0.286 v 0.132 q 0.01,0.062 0.01,0.133 0,0.163 -0.048,0.265 -0.037,0.103 -0.085,0.184 -0.047,0.082 -0.095,0.153 -0.047,0.072 -0.047,0.164 0.047,-0.041 0.095,-0.072 0.047,-0.03 0.104,-0.03 0.066,0 0.104,0.05 0.038,0.05 0.057,0.123 0.029,0.061 0.038,0.143 0.01,0.071 0.01,0.122 0,0.266 0.066,0.52 0.076,0.256 0.076,0.521 0,0.235 -0.038,0.48 -0.038,0.235 -0.038,0.48 0,0.235 0.028,0.439 0.038,0.194 0.256,0.316 0.038,0.02 0.085,0.123 0.048,0.102 0.095,0.224 0.057,0.112 0.114,0.235 0.057,0.112 0.114,0.163 0.113,0.112 0.246,0.184 l 0.265,0.143 q 0.143,0.061 0.266,0.143 0.132,0.071 0.237,0.204 0.085,0.112 0.218,0.204 0.132,0.082 0.256,0.184 0.132,0.091 0.227,0.204 0.095,0.112 0.095,0.275 0,-0.132 0.038,-0.214 0.01,0.03 0.01,0.092 0,0.081 -0.039,0.122 0.029,-0.03 0.067,-0.102 l 0.075,-0.143 q 0.038,-0.072 0.076,-0.122 0.038,-0.051 0.085,-0.051 0.067,0 0.124,0.05 0.057,0.052 0.057,0.134 0,0.102 -0.038,0.193 -0.038,0.091 -0.048,0.194 0.095,0 0.19,-0.04 0.104,-0.052 0.19,-0.123 0.085,-0.071 0.132,-0.163 0.057,-0.102 0.057,-0.215 0,-0.132 -0.076,-0.163 -0.066,-0.04 -0.17,-0.04 -0.076,0 -0.152,0.01 -0.066,0.01 -0.142,0.01 h -0.029 q 0.048,-0.153 0.142,-0.256 0.095,-0.102 0.218,-0.163 0.124,-0.071 0.256,-0.112 0.133,-0.051 0.256,-0.102 0.2,-0.082 0.322,-0.214 0.124,-0.143 0.228,-0.296 l 0.208,-0.307 q 0.105,-0.163 0.256,-0.296 0.01,-0.071 0.01,-0.132 0,-0.061 0,-0.123 0,-0.214 -0.02,-0.418 -0.009,-0.215 -0.009,-0.429 0,-0.235 0.057,-0.47 0.066,-0.234 0.066,-0.469 0,-0.204 -0.047,-0.388 -0.047,-0.194 -0.047,-0.398 0,-0.183 0.047,-0.357 0.047,-0.184 0.047,-0.367 0,-0.296 -0.047,-0.572 -0.047,-0.286 -0.047,-0.571 0,-0.388 0.057,-0.756 0.066,-0.367 0.066,-0.745 0,-0.49 -0.085,-0.96 -0.076,-0.469 -0.076,-0.959 v -0.183 q 0.01,-0.123 0.028,-0.235 0.029,-0.122 0.076,-0.204 0.047,-0.092 0.142,-0.092 -0.085,-0.01 -0.218,-0.122 -0.123,-0.123 -0.246,-0.266 -0.114,-0.153 -0.209,-0.296 -0.085,-0.153 -0.085,-0.235 l -0.095,0.02 h -0.085 q -0.133,0 -0.256,-0.05 l -0.227,-0.102 q -0.114,-0.062 -0.237,-0.113 -0.124,-0.05 -0.266,-0.05 h -0.047 q -0.038,-0.256 -0.123,-0.49 -0.076,-0.235 -0.076,-0.5 0,-0.205 0.095,-0.327 0.104,-0.123 0.256,-0.184 0.151,-0.071 0.322,-0.092 0.18,-0.02 0.322,-0.02 0.265,0 0.521,0.03 0.256,0.03 0.521,0.031 0.2,0 0.37,-0.092 0.17,-0.102 0.36,-0.102 0.104,0 0.218,0.051 0.114,0.041 0.228,0.102 l 0.246,0.123 q 0.123,0.05 0.237,0.071 0.18,0.03 0.379,0.03 0.208,0 0.408,0.021 0.2,0.021 0.379,0.082 0.18,0.051 0.331,0.194 0.076,0.071 0.133,0.163 0.066,0.092 0.066,0.204 z m 12.011,13.225 q 0,0.153 -0.142,0.255 -0.133,0.102 -0.35,0.163 -0.21,0.062 -0.465,0.102 -0.256,0.031 -0.512,0.051 -0.246,0.01 -0.455,0.01 h -0.303 q -0.247,0 -0.446,0.062 -0.199,0.061 -0.379,0.132 -0.17,0.072 -0.322,0.133 -0.152,0.061 -0.303,0.061 -0.133,0 -0.228,-0.091 -0.085,-0.092 -0.218,-0.092 -0.151,0 -0.284,-0.072 -0.133,-0.071 -0.237,-0.183 -0.104,-0.123 -0.17,-0.276 -0.057,-0.153 -0.057,-0.306 0,-0.194 0.085,-0.327 0.095,-0.133 0.237,-0.214 0.142,-0.092 0.303,-0.123 0.17,-0.04 0.322,-0.04 0.133,0 0.256,0.04 0.124,0.031 0.228,0.123 0.01,-0.153 0.076,-0.255 0.066,-0.113 0.142,-0.204 0.076,-0.103 0.132,-0.215 0.067,-0.112 0.067,-0.275 0,-0.266 -0.029,-0.531 -0.028,-0.276 -0.028,-0.541 0,-0.174 0.028,-0.347 0.038,-0.174 0.038,-0.357 0,-0.204 -0.028,-0.419 -0.02,-0.214 -0.02,-0.428 0,-0.204 0.058,-0.337 0.058,-0.133 0.057,-0.245 0,-0.214 -0.067,-0.429 -0.066,-0.224 -0.18,-0.398 -0.113,-0.184 -0.265,-0.306 -0.152,-0.133 -0.313,-0.163 -0.474,-0.092 -0.948,-0.092 -0.132,0 -0.246,0.05 -0.114,0.042 -0.18,0.042 -0.057,0 -0.133,-0.041 -0.075,-0.051 -0.104,-0.051 -0.123,0 -0.256,0.05 -0.123,0.042 -0.256,0.093 l -0.265,0.102 q -0.133,0.04 -0.256,0.04 -0.208,0 -0.436,0.01 -0.218,0 -0.436,0.042 -0.208,0.03 -0.407,0.132 -0.19,0.092 -0.341,0.276 v 0.071 q 0,0.205 0.009,0.398 0.01,0.184 0.01,0.388 0,0.235 -0.029,0.44 -0.029,0.205 -0.133,0.418 -0.028,0.081 -0.028,0.142 0,0.164 0.057,0.317 0.057,0.143 0.057,0.306 0,0.072 -0.048,0.153 -0.048,0.081 -0.047,0.174 0,0.143 0.038,0.275 0.047,0.133 0.104,0.276 0.057,0.132 0.104,0.265 0.048,0.133 0.067,0.276 0.028,0.296 0.19,0.449 0.17,0.143 0.388,0.235 0.218,0.081 0.455,0.153 0.246,0.071 0.426,0.204 -0.019,0.102 -0.019,0.153 0,0.173 0.057,0.326 0.057,0.154 0.057,0.327 0,0.173 -0.123,0.276 -0.114,0.102 -0.285,0.143 -0.17,0.05 -0.35,0.06 -0.17,0.01 -0.285,0.01 -0.019,0 -0.075,-0.02 -0.057,-0.01 -0.124,-0.04 l -0.113,-0.041 -0.086,-0.03 q -0.53,0.111 -1.08,0.142 -0.55,0.03 -1.09,0.03 -0.142,0 -0.37,-0.03 -0.227,-0.02 -0.454,-0.102 -0.218,-0.071 -0.38,-0.204 -0.151,-0.143 -0.151,-0.368 0,-0.102 0.028,-0.234 0.029,-0.143 0.086,-0.276 0.056,-0.133 0.132,-0.245 0.076,-0.112 0.17,-0.163 0.21,-0.102 0.465,-0.153 0.266,-0.061 0.493,-0.184 0.237,-0.133 0.398,-0.398 0.161,-0.265 0.161,-0.796 0,-0.265 -0.019,-0.52 -0.019,-0.256 -0.019,-0.521 0,-0.143 0.01,-0.286 0.01,-0.153 0.01,-0.296 0,-0.439 -0.048,-0.867 -0.038,-0.44 -0.038,-0.878 0,-0.184 0.028,-0.368 0.029,-0.193 0.029,-0.367 0,-0.255 -0.067,-0.5 -0.067,-0.245 -0.066,-0.49 0,-0.051 0.01,-0.071 0.038,-0.051 0.066,-0.205 0.028,-0.163 0.047,-0.347 0.029,-0.183 0.038,-0.347 0.02,-0.163 0.02,-0.245 0,-0.244 -0.048,-0.48 -0.038,-0.244 -0.038,-0.49 0,-0.142 0.019,-0.285 0.028,-0.153 0.028,-0.296 0,-0.061 -0.019,-0.071 -0.019,-0.02 -0.047,-0.031 -0.028,-0.01 -0.047,-0.03 -0.02,-0.031 -0.02,-0.123 0,-0.082 0.086,-0.204 0.085,-0.133 0.085,-0.245 0,-0.092 -0.057,-0.255 -0.057,-0.174 -0.151,-0.347 -0.086,-0.174 -0.19,-0.317 -0.095,-0.143 -0.18,-0.194 -0.18,-0.091 -0.417,-0.132 -0.227,-0.051 -0.436,-0.123 -0.208,-0.081 -0.35,-0.235 -0.143,-0.153 -0.143,-0.459 0,-0.275 0.143,-0.449 0.142,-0.184 0.35,-0.296 0.218,-0.112 0.465,-0.153 0.246,-0.051 0.445,-0.051 0.142,0 0.313,0.02 0.18,0.01 0.35,0.051 0.18,0.041 0.342,0.102 0.17,0.052 0.293,0.123 0.228,-0.082 0.465,-0.133 0.237,-0.05 0.483,-0.05 0.142,0 0.303,0.03 0.17,0.03 0.304,0.122 0.142,0.092 0.227,0.256 0.095,0.153 0.095,0.408 0,0.112 -0.029,0.183 -0.028,0.062 -0.094,0.062 -0.256,0 -0.522,0.132 -0.256,0.123 -0.473,0.337 -0.218,0.215 -0.36,0.49 -0.133,0.265 -0.133,0.541 0,0.133 0.028,0.255 0.085,0.317 0.142,0.623 0.057,0.306 0.057,0.633 0,0.275 -0.038,0.55 -0.038,0.266 -0.038,0.542 0,0.357 0.152,0.581 0.161,0.215 0.407,0.337 0.246,0.122 0.531,0.163 0.294,0.041 0.569,0.041 0.275,0 0.55,-0.02 0.274,-0.03 0.559,-0.03 0.284,0 0.559,0.08 0.275,0.072 0.559,0.072 0.104,0 0.208,-0.01 0.105,-0.02 0.18,-0.071 0.029,-0.02 0.086,-0.072 0.066,-0.05 0.132,-0.092 0.076,-0.05 0.133,-0.091 0.066,-0.041 0.095,-0.041 0.161,-0.03 0.246,-0.204 0.086,-0.174 0.124,-0.388 0.047,-0.225 0.056,-0.45 0.01,-0.234 0.01,-0.377 0,-0.163 -0.048,-0.316 -0.048,-0.153 -0.113,-0.296 -0.057,-0.153 -0.105,-0.306 -0.047,-0.154 -0.047,-0.327 0,-0.204 0.029,-0.408 0.037,-0.215 0.037,-0.419 0,-0.428 -0.151,-0.643 -0.142,-0.214 -0.36,-0.316 -0.218,-0.102 -0.484,-0.133 -0.255,-0.03 -0.473,-0.092 -0.218,-0.071 -0.37,-0.214 -0.142,-0.143 -0.142,-0.47 0,-0.214 0.085,-0.336 0.085,-0.123 0.218,-0.184 0.142,-0.071 0.303,-0.092 0.161,-0.02 0.313,-0.02 0.303,0 0.588,0.04 0.293,0.041 0.597,0.041 0.284,0 0.625,-0.06 0.341,-0.062 0.692,-0.062 0.19,0 0.445,0.03 0.256,0.021 0.493,0.103 0.237,0.081 0.398,0.245 0.161,0.163 0.161,0.449 0,0.194 -0.094,0.316 -0.095,0.112 -0.237,0.204 -0.142,0.082 -0.323,0.143 -0.18,0.061 -0.35,0.133 -0.17,0.061 -0.313,0.153 -0.142,0.081 -0.208,0.224 -0.067,0.123 -0.086,0.276 -0.01,0.153 -0.01,0.296 0,0.265 0.02,0.52 0.028,0.256 0.028,0.521 0,0.919 -0.057,1.827 -0.057,0.898 -0.057,1.806 v 0.633 q 0.01,0.306 0.038,0.623 0.02,0.296 0.105,0.582 0.085,0.275 0.085,0.571 0,0.143 -0.029,0.225 -0.029,0.082 -0.066,0.142 -0.028,0.062 -0.057,0.113 -0.028,0.05 -0.028,0.112 0,0.174 0.076,0.337 0.076,0.163 0.075,0.337 0,0.224 -0.047,0.449 -0.038,0.224 -0.038,0.449 0,0.02 0.029,0.163 0.038,0.133 0.075,0.296 0.048,0.163 0.095,0.306 0.048,0.143 0.076,0.174 0.114,0.122 0.275,0.183 0.16,0.062 0.341,0.113 0.18,0.04 0.35,0.092 0.18,0.05 0.313,0.153 0.095,0.071 0.209,0.194 0.123,0.112 0.123,0.255 z m 11.732,-9.612 q 0,0.041 -0.047,0.163 -0.047,0.123 -0.114,0.266 -0.057,0.143 -0.123,0.265 -0.066,0.123 -0.104,0.164 l 0.019,0.01 q -0.02,0 -0.038,0.01 h -0.048 q -0.038,0.01 -0.085,0.01 h -0.085 l 0.038,-0.01 q -0.218,-0.01 -0.398,-0.082 -0.17,-0.081 -0.285,-0.296 -0.019,-0.04 -0.056,-0.143 -0.038,-0.112 -0.076,-0.234 -0.038,-0.123 -0.067,-0.225 -0.019,-0.112 -0.019,-0.163 0,-0.082 0.01,-0.174 0.019,-0.092 0.019,-0.173 0,-0.317 -0.057,-0.623 -0.057,-0.306 -0.057,-0.622 0,-0.204 0.048,-0.398 0.047,-0.194 0.17,-0.358 h -0.047 q -0.114,0 -0.18,-0.071 -0.067,-0.082 -0.218,-0.082 -0.36,0 -0.702,0.092 -0.342,0.092 -0.72,0.092 h -0.303 q -0.152,-0.01 -0.313,-0.01 -0.294,0 -0.578,0.071 -0.284,0.071 -0.55,0.072 -0.028,0 -0.028,-0.01 0,-0.02 0.066,-0.052 0.067,-0.04 0.067,-0.06 0,-0.042 -0.067,-0.042 h -0.076 q -0.075,0 -0.132,0.082 -0.048,0.082 -0.152,0.112 -0.142,0.041 -0.303,0.041 h -0.313 q -0.095,0 -0.275,-0.01 -0.18,-0.01 -0.36,-0.04 -0.18,-0.042 -0.332,-0.113 -0.142,-0.082 -0.16,-0.225 -0.105,0.03 -0.143,0.113 -0.028,0.071 -0.057,0.153 -0.019,0.081 -0.066,0.153 -0.047,0.061 -0.19,0.071 -0.265,0.02 -0.34,0.184 -0.077,0.163 -0.077,0.367 0,0.113 0.01,0.225 0.01,0.112 0.01,0.224 0,0.409 -0.02,0.817 -0.009,0.398 -0.009,0.806 v 0.47 q 0.01,0.285 0.038,0.571 0.038,0.276 0.104,0.5 0.067,0.215 0.19,0.245 0.076,0.02 0.16,0.031 h 0.171 q 0.332,0 0.645,-0.082 0.322,-0.081 0.654,-0.081 0.132,0 0.246,0.04 0.123,0.041 0.247,0.041 0.18,0 0.274,-0.183 0.105,-0.194 0.143,-0.44 0.047,-0.254 0.056,-0.51 0.01,-0.255 0.01,-0.377 0,-0.255 -0.02,-0.5 -0.009,-0.255 -0.009,-0.51 h 0.057 q 0.237,0 0.446,0.081 0.208,0.082 0.436,0.082 0.094,0 0.142,-0.01 0,0.204 0.066,0.408 0.066,0.204 0.067,0.418 0,0.266 -0.266,0.337 0.076,0.143 0.123,0.286 0.048,0.143 0.048,0.296 0,0.112 -0.02,0.224 -0.018,0.102 -0.018,0.215 0,0.102 0.057,0.163 0.066,0.051 0.066,0.122 0,0.123 -0.095,0.307 -0.085,0.183 -0.085,0.377 0,0.225 0.038,0.47 0.038,0.245 0.085,0.51 0.048,0.265 0.086,0.541 0.037,0.265 0.037,0.54 0,0.164 -0.018,0.338 -0.01,0.173 -0.067,0.337 -0.047,0.153 -0.142,0.285 -0.085,0.133 -0.227,0.225 -0.18,-0.02 -0.304,-0.112 -0.123,-0.102 -0.208,-0.235 -0.076,-0.143 -0.123,-0.306 -0.038,-0.174 -0.057,-0.347 -0.038,-0.266 -0.038,-0.49 0,-0.225 -0.095,-0.378 -0.085,-0.163 -0.341,-0.255 -0.246,-0.092 -0.777,-0.092 -0.152,0 -0.436,0.03 -0.275,0.031 -0.55,0.113 -0.275,0.071 -0.483,0.214 -0.2,0.143 -0.2,0.358 0,0.122 0.02,0.245 0.028,0.112 0.028,0.234 0,0.102 -0.01,0.204 -0.009,0.102 -0.009,0.215 0,0.275 0.029,0.55 0.028,0.266 0.028,0.542 0,0.296 -0.076,0.582 -0.066,0.285 -0.066,0.581 0,0.327 0.142,0.52 0.152,0.185 0.38,0.287 0.227,0.091 0.492,0.122 0.265,0.03 0.493,0.03 0.455,0 0.91,-0.06 0.455,-0.062 0.91,-0.062 0.284,0 0.568,0.03 0.284,0.032 0.569,0.032 0.218,0 0.483,-0.01 0.265,-0.021 0.502,-0.103 0.247,-0.081 0.417,-0.234 0.18,-0.164 0.228,-0.46 0.01,-0.081 0.047,-0.112 0.048,-0.04 0.095,-0.061 0.057,-0.03 0.095,-0.061 0.038,-0.031 0.038,-0.103 0,-0.081 -0.057,-0.183 -0.057,-0.113 -0.076,-0.204 -0.038,-0.194 -0.047,-0.388 v -0.398 q 0,-0.306 0.085,-0.531 0.095,-0.235 0.095,-0.51 0,-0.082 -0.01,-0.153 v -0.153 q 0,-0.062 0.085,-0.123 0.086,-0.061 0.2,-0.102 0.113,-0.051 0.227,-0.082 0.114,-0.03 0.17,-0.03 0.237,0 0.39,0.183 0.15,0.174 0.227,0.43 0.085,0.254 0.113,0.53 0.029,0.275 0.029,0.47 0,0.316 -0.048,0.714 -0.048,0.398 -0.132,0.816 -0.076,0.419 -0.18,0.817 -0.105,0.388 -0.209,0.684 -0.057,0.142 -0.114,0.214 -0.047,0.071 -0.113,0.122 -0.057,0.041 -0.133,0.092 -0.066,0.041 -0.152,0.143 -0.075,0.092 -0.293,0.123 -0.209,0.03 -0.446,0.03 -0.18,0 -0.341,-0.01 -0.161,-0.01 -0.246,-0.01 -0.313,0 -0.512,0.081 -0.19,0.082 -0.36,0.082 -0.124,0 -0.161,-0.05 -0.038,-0.062 -0.114,-0.062 -0.067,0 -0.123,0.061 -0.056,0.061 -0.171,0.061 h -0.237 q -0.114,-0.01 -0.237,-0.01 -0.71,0 -1.412,0.041 -0.701,0.051 -1.412,0.071 -0.483,0.02 -0.957,0.123 -0.474,0.102 -0.957,0.102 -0.171,0 -0.389,-0.04 -0.218,-0.032 -0.417,-0.123 -0.19,-0.092 -0.322,-0.245 -0.133,-0.164 -0.133,-0.398 0,-0.225 0.152,-0.429 0.152,-0.204 0.36,-0.378 0.218,-0.173 0.445,-0.316 0.228,-0.153 0.37,-0.286 -0.01,-0.081 -0.01,-0.153 v -0.449 q 0.01,-0.153 0.057,-0.306 0.02,-0.092 0.095,-0.215 0.085,-0.132 0.085,-0.224 0,-0.072 -0.028,-0.133 -0.019,-0.061 -0.038,-0.132 -0.104,-0.276 -0.152,-0.49 -0.038,-0.215 -0.038,-0.52 v -0.317 l 0.02,-0.266 q 0.018,-0.132 0.047,-0.265 0.038,-0.143 0.095,-0.316 -0.038,-0.072 -0.086,-0.215 -0.047,-0.143 -0.047,-0.224 l 0.133,-1.45 q -0.01,-0.03 -0.01,-0.102 0,-0.091 0.029,-0.183 0.028,-0.092 0.028,-0.194 0,-0.235 -0.076,-0.46 -0.076,-0.234 -0.076,-0.469 0,-0.082 0.038,-0.194 0.038,-0.112 0.076,-0.245 0.047,-0.133 0.085,-0.286 0.038,-0.163 0.038,-0.347 0,-0.143 -0.066,-0.245 -0.057,-0.102 -0.057,-0.234 0,-0.123 0.057,-0.245 0.057,-0.122 0.057,-0.266 0,-0.204 -0.076,-0.388 -0.066,-0.193 -0.142,-0.367 -0.114,-0.255 -0.18,-0.408 -0.057,-0.163 -0.142,-0.255 -0.086,-0.102 -0.237,-0.143 -0.142,-0.051 -0.417,-0.072 -0.133,-0.01 -0.256,-0.081 -0.114,-0.082 -0.209,-0.204 -0.085,-0.123 -0.142,-0.266 -0.057,-0.143 -0.057,-0.275 0,-0.184 0.152,-0.307 0.152,-0.132 0.389,-0.204 0.236,-0.081 0.53,-0.122 0.294,-0.051 0.569,-0.072 0.284,-0.03 0.512,-0.04 0.237,-0.01 0.36,-0.031 0.19,-0.03 0.37,-0.041 0.18,-0.011 0.369,-0.01 0.37,0 0.74,0.03 0.378,0.02 0.748,0.02 0.398,0 0.777,-0.08 0.389,-0.082 0.787,-0.082 0.36,0 0.71,0.091 0.351,0.082 0.692,0.082 0.332,0 0.654,-0.082 0.322,-0.091 0.654,-0.091 0.142,0 0.284,0.03 0.209,0.245 0.38,0.408 0.18,0.164 0.303,0.337 0.132,0.164 0.208,0.388 0.085,0.225 0.114,0.592 0.01,0.133 0.01,0.327 0,0.183 0.009,0.367 0.01,0.174 0.047,0.317 0.048,0.142 0.142,0.173 0,0.143 -0.132,0.143 0.01,0.143 0.057,0.296 0.047,0.143 0.094,0.296 0.048,0.143 0.086,0.296 0.038,0.143 0.038,0.275 z m -8.207,2.51 q -0.056,0 -0.104,0.021 -0.047,0.02 -0.066,0.092 0.36,0.225 0.568,0.429 0.218,0.194 0.332,0.316 0.123,0.123 0.18,0.143 0.057,0.01 0.114,-0.133 0.076,-0.183 -0.028,-0.347 -0.095,-0.163 -0.275,-0.275 -0.17,-0.112 -0.38,-0.174 -0.198,-0.071 -0.34,-0.071 z"
         id="path6" />
    </g>
    <g
       fill="#ffffff"
       aria-label="IT-solutions."
       id="g7">
      <path
         d="m 89.826,158.75 q 0,0.032 -0.023,0.057 -0.02,0.026 -0.05,0.051 -0.03,0.023 -0.06,0.043 -0.032,0.02 -0.052,0.037 -0.048,0.04 -0.116,0.04 -0.046,0 -0.088,-0.012 -0.04,-0.011 -0.086,-0.011 -0.02,0 -0.03,0.008 -0.038,0.023 -0.072,0.026 -0.034,0.003 -0.074,0.003 -0.023,0 -0.062,-0.02 -0.037,-0.023 -0.04,-0.045 l 0.02,-0.02 q -0.032,0.011 -0.043,0.025 -0.011,0.014 -0.017,0.032 L 89.027,159 q -0.003,0.02 -0.014,0.04 -0.014,0.029 -0.045,0.034 -0.029,0.006 -0.06,0.026 -0.029,0.02 -0.051,0.074 -0.023,0.051 -0.023,0.173 0,0.054 0.006,0.106 0.005,0.05 0.005,0.102 0,0.102 -0.017,0.205 -0.017,0.1 -0.017,0.204 0,0.063 -0.02,0.12 -0.017,0.057 -0.017,0.12 0,0.087 0.074,0.121 -0.02,0.009 -0.031,0.046 -0.012,0.034 -0.02,0.08 -0.006,0.042 -0.009,0.085 v 0.088 q 0,0.02 0.003,0.043 l 0.006,0.04 q 0.003,0.016 0.011,0.025 0.023,0.023 0.023,0.057 0,0.034 -0.011,0.068 -0.012,0.031 -0.012,0.066 0,0.139 0.017,0.278 0.02,0.137 0.02,0.276 0,0.09 -0.02,0.182 -0.017,0.09 -0.017,0.182 0,0.082 0.029,0.13 0.029,0.048 0.077,0.075 0.048,0.025 0.11,0.034 0.063,0.008 0.131,0.008 0.108,0 0.213,-0.017 0.108,-0.02 0.214,-0.02 0.105,0 0.162,0.066 0.06,0.065 0.06,0.167 0,0.077 -0.026,0.145 -0.023,0.066 -0.068,0.114 -0.043,0.051 -0.106,0.08 -0.062,0.028 -0.142,0.028 -0.057,0 -0.128,-0.014 -0.113,-0.023 -0.227,-0.034 -0.114,-0.009 -0.233,-0.009 -0.1,0 -0.2,0.003 -0.099,0.006 -0.198,0.006 -0.12,0 -0.236,-0.003 -0.117,-0.003 -0.236,-0.003 -0.043,0 -0.083,-0.014 -0.04,-0.014 -0.08,-0.014 -0.028,0 -0.065,0.008 -0.037,0.012 -0.08,0.023 -0.04,0.011 -0.085,0.02 -0.045,0.011 -0.09,0.011 -0.106,0 -0.183,-0.048 -0.076,-0.045 -0.076,-0.162 0,-0.037 0.008,-0.071 0.003,-0.026 0.026,-0.071 0.025,-0.046 0.057,-0.088 0.034,-0.046 0.068,-0.077 0.037,-0.031 0.065,-0.031 0.023,0 0.043,0.011 0.023,0.011 0.048,0.028 0.029,0.015 0.066,0.026 0.037,0.011 0.088,0.011 0.102,0 0.213,-0.02 0.11,-0.02 0.202,-0.068 0.094,-0.05 0.153,-0.13 0.06,-0.083 0.06,-0.205 0,-0.046 -0.006,-0.088 l -0.011,-0.091 q -0.017,-0.148 -0.02,-0.299 -0.003,-0.15 -0.003,-0.301 0,-0.1 0.026,-0.19 0.025,-0.095 0.025,-0.194 0,-0.057 -0.02,-0.108 -0.02,-0.051 -0.02,-0.105 0,-0.026 0.006,-0.051 0.009,-0.026 0.009,-0.055 0,-0.062 -0.014,-0.119 -0.012,-0.06 -0.012,-0.12 0,-0.099 0.02,-0.198 0.023,-0.1 0.023,-0.2 0,-0.06 -0.014,-0.119 -0.015,-0.06 -0.032,-0.116 l -0.028,-0.117 q -0.014,-0.06 -0.014,-0.12 0,-0.036 0.008,-0.076 -0.017,-0.04 -0.048,-0.063 -0.031,-0.022 -0.068,-0.042 l -0.074,-0.04 q -0.034,-0.02 -0.054,-0.057 -0.023,0.003 -0.029,0.023 -0.005,0.017 -0.008,0.04 -0.003,0.02 -0.012,0.04 -0.005,0.016 -0.03,0.02 -0.08,0.008 -0.163,0.013 -0.08,0.006 -0.16,0.006 -0.045,0 -0.113,-0.006 -0.065,-0.005 -0.128,-0.025 -0.06,-0.02 -0.102,-0.057 -0.043,-0.037 -0.043,-0.102 0,-0.04 0.017,-0.083 0.02,-0.045 0.046,-0.088 0.028,-0.043 0.06,-0.08 l 0.06,-0.068 q 0.02,-0.02 0.059,-0.034 0.04,-0.014 0.088,-0.02 0.051,-0.005 0.108,-0.008 0.057,-0.003 0.114,-0.003 0.07,0 0.13,0.003 h 0.103 q 0.071,0 0.173,-0.003 0.106,-0.006 0.2,-0.014 l 0.164,-0.017 q 0.071,-0.012 0.074,-0.023 0.017,0.008 0.04,0.028 l 0.051,0.034 0.054,0.032 q 0.026,0.014 0.04,0.014 0.017,0 0.026,-0.012 0.011,-0.014 0.017,-0.03 0.008,-0.018 0.011,-0.035 0.003,-0.02 0.003,-0.031 h 0.02 q 0.062,0 0.082,0.037 0.023,0.037 0.023,0.088 0,0.011 -0.003,0.02 v 0.017 q 0.029,-0.006 0.04,-0.026 0.014,-0.023 0.023,-0.045 0.008,-0.023 0.02,-0.04 0.014,-0.017 0.045,-0.017 0.011,0 0.034,0.006 h 0.02 q 0.063,0.05 0.097,0.08 l 0.057,0.042 0.025,0.014 0.009,0.003 0.02,0.003 q 0.017,0.003 0.017,0 0,-0.012 -0.014,-0.02 -0.012,-0.011 -0.029,-0.023 -0.014,-0.011 -0.028,-0.025 -0.012,-0.015 -0.012,-0.032 0.034,0 0.054,-0.008 0.02,-0.012 0.034,-0.023 l 0.029,-0.026 q 0.017,-0.011 0.043,-0.011 0.036,0 0.056,0.011 0.02,0.012 0.034,0.026 0.015,0.011 0.026,0.023 0.011,0.011 0.031,0.011 0.015,0 0.023,-0.003 0.011,-0.003 0.026,-0.003 0.02,0 0.025,0.017 0.005,0.017 0.009,0.032 0.008,0.042 0.014,0.065 0.006,0.023 0.014,0.04 0.008,0.017 0.02,0.037 0.014,0.017 0.037,0.051 0.017,0.023 0.017,0.048 z m -1.424,0.188 q 0.017,-0.023 -0.009,-0.051 -0.025,-0.029 -0.057,-0.029 -0.034,0 -0.045,0.034 -0.009,0.032 -0.009,0.057 0.006,0.02 0.017,0.032 0.009,0.011 0.02,0.02 0.012,0.008 0.026,0.008 0.023,0 0.034,-0.009 0.011,-0.01 0.017,-0.025 0.006,-0.014 0.006,-0.037 z m 4.868,0.609 q 0,0.051 -0.004,0.105 0,0.052 -0.011,0.1 -0.006,0.025 -0.026,0.057 -0.02,0.028 -0.048,0.057 -0.026,0.025 -0.057,0.045 -0.031,0.017 -0.057,0.017 -0.042,0 -0.054,-0.034 -0.011,-0.034 -0.017,-0.074 -0.003,-0.04 -0.017,-0.074 -0.011,-0.034 -0.057,-0.034 -0.014,0 -0.025,0.006 -0.009,0.005 -0.023,0.005 -0.006,0 -0.011,-0.034 l -0.015,-0.082 q -0.008,-0.048 -0.02,-0.097 -0.01,-0.051 -0.025,-0.085 l -0.054,-0.111 q -0.026,-0.06 -0.026,-0.125 0,-0.046 0.017,-0.077 0.017,-0.034 0.037,-0.062 l 0.037,-0.057 q 0.017,-0.029 0.017,-0.068 0,-0.057 -0.037,-0.1 -0.037,-0.043 -0.093,-0.068 -0.054,-0.029 -0.117,-0.04 -0.06,-0.014 -0.105,-0.014 -0.077,0 -0.15,0.02 -0.072,0.017 -0.146,0.042 l -0.142,0.054 q -0.071,0.029 -0.142,0.049 0.014,0.04 0.017,0.082 0.006,0.043 0.006,0.085 0,0.097 -0.009,0.194 -0.009,0.094 -0.009,0.19 0,0.105 0.012,0.21 l 0.023,0.205 q 0.014,0.103 0.025,0.208 0.012,0.102 0.012,0.205 0,0.125 -0.043,0.244 -0.009,0.023 -0.009,0.037 0,0.031 0.015,0.063 l 0.03,0.062 q 0.02,0.031 0.035,0.066 0.014,0.034 0.014,0.07 0,0.035 -0.011,0.066 -0.011,0.031 -0.012,0.063 0,0.045 0.012,0.088 0.014,0.042 0.014,0.088 0,0.025 -0.014,0.031 -0.012,0.006 -0.029,0.006 -0.017,0 -0.03,0.003 -0.012,0 -0.012,0.014 0,0.043 0.017,0.082 0.02,0.037 0.02,0.08 0,0.037 -0.017,0.071 -0.015,0.031 -0.015,0.068 0,0.037 0.032,0.066 0.034,0.028 0.048,0.068 0.014,0.048 0.023,0.11 0.011,0.063 0.04,0.12 0.03,0.057 0.093,0.097 0.063,0.037 0.185,0.037 h 0.083 q 0.034,0 0.082,0.006 0.051,0.005 0.097,0.022 0.048,0.015 0.08,0.046 0.034,0.028 0.034,0.074 0,0.045 -0.018,0.088 -0.018,0.043 -0.017,0.088 0,0.014 0.006,0.043 -0.043,0 -0.077,0.02 -0.031,0.017 -0.045,0.06 -0.057,-0.012 -0.117,-0.015 -0.057,-0.006 -0.113,-0.006 -0.145,0 -0.288,0.023 -0.142,0.02 -0.287,0.046 l -0.287,0.045 q -0.142,0.02 -0.287,0.02 -0.048,0 -0.12,-0.003 -0.07,-0.003 -0.136,-0.02 -0.065,-0.017 -0.114,-0.051 -0.045,-0.037 -0.045,-0.105 0,-0.08 0.014,-0.117 0.017,-0.04 0.04,-0.054 0.023,-0.017 0.051,-0.02 0.031,-0.003 0.06,-0.011 0.008,-0.009 0.008,-0.017 0,-0.014 -0.014,-0.023 -0.011,-0.011 -0.026,-0.017 0.049,-0.043 0.108,-0.06 0.063,-0.017 0.126,-0.022 l 0.13,-0.012 q 0.066,-0.005 0.123,-0.028 0.022,-0.009 0.048,-0.049 0.026,-0.04 0.045,-0.088 0.023,-0.048 0.035,-0.096 0.014,-0.049 0.014,-0.074 v -0.006 q -0.02,-0.136 -0.032,-0.267 -0.01,-0.131 -0.01,-0.267 0,-0.012 0.008,-0.037 0.008,-0.029 0.022,-0.057 0.012,-0.032 0.032,-0.071 -0.023,-0.037 -0.04,-0.069 l -0.026,-0.054 q -0.011,-0.025 -0.011,-0.04 0,-0.034 0.011,-0.065 0.011,-0.031 0.017,-0.062 0.017,-0.12 0.017,-0.242 0,-0.051 -0.008,-0.1 -0.006,-0.05 -0.017,-0.1 -0.037,-0.172 -0.037,-0.357 0,-0.216 0.028,-0.43 0.029,-0.213 0.029,-0.429 0,-0.074 -0.026,-0.114 -0.025,-0.042 -0.1,-0.065 -0.099,-0.029 -0.207,-0.046 -0.105,-0.017 -0.21,-0.017 -0.08,0 -0.168,0.02 -0.085,0.017 -0.16,0.06 -0.07,0.04 -0.119,0.108 -0.045,0.065 -0.045,0.16 0,0.048 0.005,0.093 0.006,0.046 0.006,0.094 0,0.045 -0.02,0.08 -0.017,0.03 -0.017,0.062 0,0.043 0.023,0.08 0.023,0.037 0.023,0.08 0,0.028 -0.015,0.062 -0.01,0.034 -0.028,0.07 l -0.034,0.07 q -0.014,0.033 -0.023,0.062 -0.014,0.042 -0.037,0.074 -0.023,0.03 -0.07,0.03 -0.04,0 -0.075,-0.025 -0.034,-0.028 -0.034,-0.068 0,-0.031 0.014,-0.048 0.017,-0.02 0.017,-0.046 0,-0.028 -0.011,-0.057 -0.011,-0.03 -0.028,-0.06 -0.015,-0.03 -0.026,-0.062 -0.011,-0.031 -0.011,-0.062 0,-0.04 0.011,-0.077 0.014,-0.037 0.014,-0.077 0,-0.085 -0.028,-0.168 -0.026,-0.082 -0.026,-0.167 0,-0.077 0.017,-0.182 0.017,-0.106 0.057,-0.202 0.043,-0.097 0.108,-0.162 0.068,-0.069 0.17,-0.069 0.072,0 0.14,0.017 0.071,0.015 0.145,0.015 0.082,0 0.165,-0.015 0.082,-0.014 0.165,-0.014 0.057,0 0.105,0.02 0.051,0.017 0.108,0.017 0.034,0 0.057,-0.014 0.026,-0.017 0.057,-0.017 0.034,0 0.065,0.017 0.034,0.014 0.068,0.014 0.032,0 0.057,-0.008 0.029,-0.009 0.057,-0.009 0.043,0 0.083,0.012 0.042,0.01 0.082,0.01 l 0.344,-0.042 0.154,-0.011 q 0.076,-0.006 0.156,-0.006 0.136,0 0.27,0.023 0.137,0.02 0.273,0.051 v 0.003 q 0.094,0.023 0.134,0.097 0.04,0.074 0.05,0.17 0.015,0.094 0.012,0.194 -0.003,0.1 0.003,0.17 l 0.02,0.22 q 0.014,0.107 0.014,0.215 z m 3.368,1.15 q -0.022,0.056 -0.065,0.093 -0.043,0.037 -0.074,0.08 -0.034,0.006 -0.091,0.011 -0.054,0.003 -0.088,0.037 -0.074,-0.025 -0.16,-0.03 -0.082,-0.01 -0.167,-0.015 -0.085,-0.009 -0.168,-0.023 -0.08,-0.017 -0.148,-0.06 -0.076,0.043 -0.165,0.043 -0.054,0 -0.105,-0.011 -0.05,-0.015 -0.096,-0.032 -0.069,0.006 -0.134,0.009 -0.063,0.003 -0.122,0.003 -0.077,0 -0.148,-0.003 -0.071,-0.003 -0.142,-0.003 -0.108,0 -0.216,0.009 -0.106,0.008 -0.234,0.037 -0.008,-0.003 -0.008,-0.018 0,-0.008 0.003,-0.017 0.003,-0.011 0.003,-0.02 0,-0.028 -0.057,-0.028 -0.034,0 -0.046,0.023 -0.008,0.023 -0.022,0.042 -0.049,-0.008 -0.089,-0.008 -0.042,0 -0.088,0.008 -0.042,0.006 -0.096,0.018 -0.074,-0.029 -0.12,-0.083 -0.045,-0.054 -0.074,-0.122 -0.025,-0.068 -0.037,-0.142 -0.008,-0.077 -0.008,-0.151 v -0.048 q 0.022,-0.017 0.054,-0.026 0.031,-0.009 0.062,-0.014 0.034,-0.009 0.063,-0.02 0.031,-0.011 0.048,-0.034 0.043,0.045 0.105,0.06 0.063,0.01 0.131,0.017 0.071,0.002 0.142,0.01 0.071,0.007 0.134,0.04 0.063,-0.03 0.122,-0.04 0.06,-0.008 0.117,-0.008 0.048,0 0.094,0.003 0.045,0.003 0.09,0.003 0.055,0 0.106,-0.008 0.028,0.025 0.07,0.037 0.046,0.008 0.1,0.008 0.074,0 0.151,-0.014 0.08,-0.014 0.14,-0.031 0.04,0.025 0.082,0.037 0.042,0.008 0.085,0.008 0.088,0 0.18,-0.023 0.093,-0.025 0.19,-0.025 0.09,0 0.173,0.037 0.014,-0.037 0.037,-0.06 0.026,-0.023 0.057,-0.04 0.054,0.026 0.117,0.046 0.065,0.017 0.122,0.042 0.057,0.023 0.1,0.06 0.045,0.034 0.062,0.097 -0.009,0.028 -0.023,0.028 -0.014,0 -0.028,-0.008 -0.014,-0.009 -0.037,-0.009 H 96.51 q 0,0.023 0.015,0.031 0.014,0.006 0.03,0.009 l 0.035,0.006 q 0.017,0.003 0.02,0.02 -0.003,0.01 -0.003,0.022 v 0.017 q 0,0.074 0.031,0.123 z m -2.595,-0.339 h -0.009 q -0.003,-0.003 -0.009,-0.003 -0.03,0 -0.054,0.029 -0.022,0.028 -0.022,0.057 0,0.017 0.011,0.031 0.011,0.011 0.037,0.014 0.02,-0.003 0.026,-0.017 0.005,-0.017 0.005,-0.034 0.003,-0.02 0.003,-0.04 0.003,-0.023 0.012,-0.037 z m 5.768,1.285 q 0,0.037 -0.014,0.074 -0.011,0.034 -0.028,0.071 l -0.034,0.068 q -0.015,0.035 -0.02,0.072 -0.015,0.076 -0.06,0.139 -0.043,0.06 -0.1,0.114 -0.056,0.054 -0.119,0.105 -0.062,0.048 -0.11,0.1 -0.043,0.042 -0.092,0.042 -0.028,0 -0.054,-0.006 -0.025,-0.006 -0.054,-0.006 -0.04,0 -0.065,0.015 -0.023,0.014 -0.046,0.031 -0.02,0.014 -0.05,0.028 -0.03,0.015 -0.08,0.015 -0.037,0 -0.072,0.02 -0.034,0.02 -0.068,0.02 -0.048,0 -0.114,-0.029 -0.062,-0.028 -0.139,-0.028 -0.048,0 -0.097,0.005 -0.048,0.003 -0.096,0.003 -0.043,0 -0.085,-0.011 l -0.08,-0.029 q -0.037,-0.017 -0.077,-0.028 -0.04,-0.014 -0.082,-0.014 -0.086,0 -0.145,0.042 -0.06,0.043 -0.108,0.094 -0.046,0.054 -0.094,0.097 -0.046,0.042 -0.105,0.042 -0.054,0 -0.074,-0.02 -0.017,-0.016 -0.023,-0.042 L 97.42,162.57 q -0.003,-0.028 -0.025,-0.051 -0.043,-0.046 -0.057,-0.083 -0.014,-0.04 -0.014,-0.102 0,-0.136 0.022,-0.264 0.026,-0.131 0.026,-0.268 0,-0.048 -0.011,-0.093 -0.012,-0.046 -0.029,-0.083 l -0.025,-0.062 q -0.012,-0.026 -0.012,-0.037 0,-0.026 0.014,-0.054 0.015,-0.029 0.032,-0.052 0.02,-0.025 0.04,-0.04 0.022,-0.016 0.036,-0.016 0.029,0 0.049,0.014 0.023,0.014 0.042,0.031 0.023,0.014 0.043,0.029 0.023,0.014 0.054,0.014 h 0.009 q 0.002,-0.003 0.008,-0.003 0.04,0.065 0.063,0.142 l 0.045,0.148 q 0.026,0.07 0.06,0.14 0.037,0.065 0.102,0.116 l 0.04,0.031 0.046,0.034 q 0.025,0.017 0.048,0.029 0.025,0.011 0.045,0.011 0.032,0 0.06,-0.006 0.031,-0.005 0.063,-0.005 0.042,0 0.042,0.028 0,0.006 -0.005,0.023 h 0.054 q 0.108,0 0.216,-0.026 0.108,-0.025 0.219,-0.025 0.05,0 0.102,0.011 0.054,0.009 0.097,0.04 0.054,-0.026 0.09,-0.066 0.038,-0.04 0.075,-0.076 0.036,-0.04 0.082,-0.069 0.045,-0.03 0.117,-0.034 0.014,-0.017 0.014,-0.04 0.003,-0.022 0.003,-0.042 0,-0.023 0.002,-0.043 0.006,-0.02 0.023,-0.037 0.029,-0.025 0.043,-0.05 0.017,-0.03 0.017,-0.07 0,-0.076 -0.043,-0.141 -0.042,-0.069 -0.11,-0.123 -0.066,-0.056 -0.154,-0.1 -0.085,-0.045 -0.176,-0.076 -0.089,-0.031 -0.171,-0.045 -0.082,-0.017 -0.145,-0.017 -0.071,0 -0.142,0.014 -0.068,0.011 -0.134,0.042 0,-0.062 -0.028,-0.082 -0.029,-0.02 -0.068,-0.028 -0.04,-0.009 -0.083,-0.023 -0.04,-0.017 -0.062,-0.071 -0.049,0.062 -0.123,0.09 -0.07,0.03 -0.145,0.03 -0.074,0 -0.136,-0.03 -0.063,-0.028 -0.114,-0.076 -0.048,-0.048 -0.08,-0.111 -0.028,-0.063 -0.03,-0.134 -0.004,-0.048 -0.02,-0.085 -0.018,-0.037 -0.038,-0.071 -0.02,-0.034 -0.037,-0.071 -0.014,-0.037 -0.014,-0.088 0,-0.128 0.011,-0.2 0.015,-0.073 0.035,-0.11 0.02,-0.04 0.042,-0.054 0.026,-0.017 0.051,-0.031 0.026,-0.017 0.049,-0.046 0.023,-0.028 0.037,-0.09 0.008,-0.044 0.025,-0.058 0.017,-0.014 0.06,-0.02 0.037,-0.005 0.048,-0.017 0.012,-0.011 0.015,-0.025 l 0.011,-0.029 q 0.006,-0.017 0.028,-0.031 0.06,-0.04 0.117,-0.048 0.06,-0.012 0.122,-0.012 0.037,0 0.071,0.003 h 0.074 q 0.12,0 0.233,-0.011 0.114,-0.012 0.233,-0.012 0.091,0 0.165,0.02 0.077,0.017 0.134,0.04 0.057,0.023 0.097,0.043 0.042,0.017 0.068,0.017 0.048,0 0.09,-0.017 0.046,-0.02 0.095,-0.023 0.022,0.02 0.05,0.037 0.032,0.014 0.063,0.014 0.023,0 0.035,-0.014 0.011,-0.014 0.014,-0.037 0.04,0.011 0.077,0.04 0.037,0.028 0.065,0.068 0.031,0.037 0.048,0.083 0.017,0.042 0.017,0.082 0,0.105 -0.017,0.21 -0.014,0.103 -0.014,0.208 0,0.108 0.029,0.202 -0.04,0.031 -0.089,0.057 -0.045,0.022 -0.076,0.065 l -0.003,-0.003 -0.051,-0.043 q -0.029,-0.028 -0.063,-0.054 -0.031,-0.025 -0.063,-0.042 -0.03,-0.02 -0.056,-0.02 h -0.006 q -0.014,-0.009 -0.026,-0.02 -0.008,-0.011 -0.008,-0.028 0,-0.029 0.017,-0.052 0.017,-0.022 0.017,-0.05 0,-0.01 -0.026,-0.04 -0.025,-0.032 -0.06,-0.063 -0.03,-0.034 -0.062,-0.06 -0.031,-0.028 -0.045,-0.031 -0.029,-0.006 -0.06,-0.02 l -0.063,-0.028 q -0.03,-0.015 -0.06,-0.026 -0.025,-0.011 -0.042,-0.011 -0.037,0 -0.074,0.01 -0.037,0.01 -0.077,0.012 h 0.003 l -0.128,-0.014 q -0.094,-0.011 -0.185,-0.045 -0.09,-0.034 -0.187,-0.034 -0.086,0 -0.125,0.04 -0.04,0.04 -0.066,0.09 -0.025,0.049 -0.05,0.088 -0.027,0.04 -0.086,0.04 -0.017,0 -0.026,-0.003 0.029,0.091 0.051,0.154 0.026,0.062 0.06,0.114 0.034,0.048 0.085,0.093 0.052,0.043 0.131,0.094 0.009,0.006 0.023,0.02 0.017,0.014 0.034,0.031 l 0.031,0.026 q 0.017,0.011 0.026,0.011 0.048,0 0.09,-0.022 0.046,-0.023 0.095,-0.023 0.034,0 0.062,0.017 0.032,0.014 0.066,0.014 0.034,0 0.065,-0.011 0.031,-0.014 0.068,-0.014 0.014,0 0.029,0.003 l 0.031,0.005 q 0.085,0.023 0.17,0.023 0.086,-0.003 0.174,0 0.063,0 0.125,0.023 0.066,0.022 0.125,0.06 0.06,0.034 0.111,0.079 0.051,0.046 0.088,0.094 0.029,0.04 0.063,0.07 0.034,0.032 0.065,0.066 0.034,0.032 0.06,0.069 0.025,0.036 0.037,0.085 0.014,0.057 0.037,0.125 0.025,0.068 0.025,0.122 z m 3.389,-0.372 q 0,0.04 -0.014,0.077 -0.011,0.034 -0.028,0.06 -0.015,0.025 -0.029,0.042 -0.011,0.017 -0.011,0.02 0,0.029 0.017,0.06 0.02,0.031 0.02,0.068 0,0.017 -0.014,0.023 -0.012,0.006 -0.026,0.006 -0.026,0 -0.043,-0.006 0.003,0.054 0.009,0.105 0.008,0.051 0.008,0.105 0,0.083 -0.017,0.108 -0.014,0.023 -0.03,0.029 -0.016,0.006 -0.035,0.014 -0.014,0.006 -0.014,0.051 0,0.026 -0.037,0.066 -0.034,0.04 -0.086,0.08 -0.048,0.04 -0.102,0.068 -0.051,0.028 -0.082,0.028 -0.009,0 -0.02,-0.006 0,0.023 0.003,0.049 l 0.002,0.048 q 0,0.037 -0.022,0.051 l -0.051,0.023 q -0.043,0.02 -0.089,0.06 l -0.093,0.076 q -0.049,0.04 -0.1,0.069 -0.048,0.03 -0.102,0.03 -0.046,0 -0.086,-0.022 -0.037,-0.023 -0.088,-0.023 -0.045,0 -0.076,0.012 l -0.06,0.028 q -0.026,0.017 -0.054,0.029 -0.029,0.014 -0.066,0.014 -0.074,0 -0.147,-0.04 -0.074,-0.037 -0.143,-0.06 -0.04,-0.014 -0.085,-0.022 -0.045,-0.006 -0.088,-0.015 -0.043,-0.008 -0.082,-0.028 -0.037,-0.017 -0.066,-0.051 -0.06,-0.074 -0.14,-0.122 -0.079,-0.049 -0.161,-0.091 -0.083,-0.043 -0.16,-0.089 -0.076,-0.048 -0.133,-0.125 -0.043,-0.06 -0.097,-0.128 -0.054,-0.07 -0.102,-0.148 -0.046,-0.076 -0.077,-0.156 -0.031,-0.08 -0.031,-0.156 0,-0.057 0.011,-0.111 0.011,-0.054 0.023,-0.108 l 0.026,-0.111 q 0.01,-0.054 0.01,-0.11 v -0.032 q 0,-0.012 -0.008,-0.026 -0.008,-0.014 -0.02,-0.025 -0.008,-0.015 -0.02,-0.023 -0.008,-0.012 -0.01,-0.012 -0.006,0 -0.006,0.003 0.002,-0.025 0.014,-0.076 0.014,-0.054 0.031,-0.108 0.017,-0.057 0.034,-0.103 0.017,-0.048 0.031,-0.062 l 0.032,-0.029 q 0.017,-0.017 0.017,-0.042 0,-0.025 -0.003,-0.049 -0.003,-0.025 -0.003,-0.051 0,-0.034 0.009,-0.04 0.008,-0.008 0.022,-0.008 0.014,0 0.029,-0.003 0.014,-0.006 0.028,-0.032 l 0.049,-0.093 q 0.025,-0.046 0.054,-0.083 0.028,-0.037 0.065,-0.068 0.037,-0.031 0.09,-0.06 0.046,-0.025 0.09,-0.062 l 0.09,-0.074 q 0.046,-0.037 0.091,-0.063 0.048,-0.025 0.102,-0.025 0.077,0 0.148,-0.026 0.074,-0.028 0.148,-0.043 0.117,-0.017 0.23,-0.03 0.117,-0.018 0.236,-0.018 0.066,0 0.16,0.023 0.093,0.02 0.19,0.054 0.1,0.034 0.185,0.077 0.088,0.042 0.14,0.085 v 0.008 q 0,0.04 -0.015,0.083 -0.014,0.04 -0.014,0.08 v 0.01 q 0,0.006 0.005,0.007 0.049,0 0.091,-0.012 0.046,-0.014 0.094,-0.014 0.006,0.048 0.043,0.065 l 0.074,0.032 q 0.034,0.017 0.062,0.062 0.032,0.043 0.057,0.1 0.026,0.054 0.049,0.108 0.025,0.054 0.048,0.088 0.023,0.034 0.04,0.082 0.02,0.046 0.031,0.097 0.014,0.051 0.02,0.102 0.006,0.049 0.006,0.091 0,0.057 -0.023,0.097 -0.02,0.037 -0.046,0.068 l -0.048,0.057 q -0.02,0.026 -0.02,0.06 0,0.02 0.009,0.037 0.009,0.017 0.022,0.031 0.006,-0.003 0.023,-0.006 0.02,-0.002 0.02,-0.017 v -0.003 q 0,-0.022 -0.02,-0.042 -0.017,-0.02 -0.017,-0.048 0,-0.006 0.006,-0.018 0.005,-0.014 0.014,-0.014 0.017,0 0.034,0.023 0.017,0.02 0.031,0.045 0.017,0.023 0.026,0.04 0.009,0.017 0.008,0.012 l -0.002,-0.003 0.002,0.025 q 0.003,0.009 0.003,0.02 z m -0.284,0.023 q 0,-0.045 -0.034,-0.054 -0.034,-0.011 -0.077,-0.014 -0.043,-0.003 -0.085,-0.009 -0.04,-0.005 -0.054,-0.042 v -0.029 q 0,-0.062 -0.017,-0.145 -0.014,-0.085 -0.037,-0.17 -0.023,-0.089 -0.049,-0.171 -0.025,-0.085 -0.048,-0.15 l -0.037,-0.106 -0.014,-0.04 q -0.023,0.006 -0.037,0.006 -0.048,0 -0.085,-0.02 -0.034,-0.02 -0.08,-0.043 -0.043,-0.022 -0.108,-0.042 -0.063,-0.02 -0.168,-0.02 -0.116,0 -0.23,-0.014 -0.114,-0.017 -0.23,-0.017 -0.16,0 -0.299,0.074 -0.14,0.07 -0.244,0.19 -0.106,0.117 -0.165,0.265 -0.06,0.147 -0.06,0.298 0,0.063 0.003,0.148 0.003,0.082 0.014,0.168 0.011,0.082 0.037,0.156 0.026,0.071 0.071,0.108 v 0.08 q 0.012,0.011 0.029,0.014 h 0.037 q 0.02,0 0.034,0.006 0.014,0.002 0.022,0.022 0.037,0.106 0.097,0.162 0.06,0.054 0.128,0.094 0.068,0.037 0.136,0.077 0.069,0.037 0.126,0.11 0.022,-0.002 0.048,-0.002 0.025,-0.003 0.048,-0.003 0.091,0 0.177,0.014 0.088,0.012 0.176,0.012 0.094,0 0.168,-0.049 0.076,-0.048 0.13,-0.122 0.034,-0.048 0.063,-0.082 0.028,-0.035 0.057,-0.063 0.031,-0.031 0.065,-0.057 l 0.085,-0.062 0.04,-0.029 q 0.026,-0.017 0.049,-0.037 0.025,-0.023 0.042,-0.042 0.017,-0.023 0.017,-0.043 0,-0.026 -0.008,-0.051 -0.006,-0.026 -0.006,-0.051 0,-0.029 0.009,-0.069 0.008,-0.04 0.025,-0.076 0.02,-0.037 0.046,-0.06 0.028,-0.026 0.068,-0.026 0.031,0 0.062,0.014 0.032,0.015 0.057,0.035 0.006,-0.029 0.006,-0.043 z m 3.654,1.074 q 0,0.1 -0.069,0.156 -0.065,0.06 -0.159,0.088 -0.094,0.031 -0.196,0.04 -0.1,0.008 -0.17,0.008 -0.095,0 -0.157,-0.017 -0.06,-0.017 -0.105,-0.037 -0.046,-0.017 -0.08,-0.034 -0.034,-0.017 -0.071,-0.017 -0.048,0 -0.097,0.017 -0.045,0.017 -0.094,0.017 -0.034,0 -0.056,-0.011 -0.02,-0.011 -0.035,-0.028 -0.014,-0.015 -0.028,-0.026 -0.011,-0.011 -0.028,-0.011 -0.02,0 -0.032,0.014 l -0.025,0.037 q -0.014,0.02 -0.043,0.034 -0.025,0.017 -0.077,0.017 -0.06,0 -0.116,-0.014 -0.057,-0.012 -0.117,-0.012 -0.06,0 -0.12,0.02 -0.056,0.023 -0.107,0.023 -0.023,0 -0.034,-0.017 -0.012,-0.014 -0.026,-0.014 -0.048,0 -0.102,0.022 -0.052,0.023 -0.106,0.023 -0.028,0 -0.056,-0.008 -0.026,-0.006 -0.054,-0.006 -0.049,0 -0.097,0.023 -0.048,0.023 -0.12,0.022 -0.025,0 -0.113,-0.008 -0.086,-0.006 -0.176,-0.02 -0.091,-0.014 -0.165,-0.037 -0.071,-0.02 -0.071,-0.045 0,-0.074 0.025,-0.148 0.029,-0.074 0.029,-0.142 v -0.006 q -0.037,0 -0.043,-0.04 0.006,-0.011 0.017,-0.017 0.014,-0.009 0.028,-0.011 0.015,-0.006 0.026,-0.015 0.011,-0.008 0.011,-0.025 v -0.011 q 0.114,0.01 0.222,0.014 0.111,0.003 0.23,0.003 0.111,0 0.245,-0.006 0.136,-0.009 0.25,-0.043 0.117,-0.034 0.193,-0.102 0.08,-0.071 0.08,-0.196 v -0.066 q -0.014,-0.312 -0.031,-0.614 -0.014,-0.304 -0.014,-0.617 0,-0.082 -0.015,-0.159 -0.011,-0.08 -0.011,-0.16 0,-0.099 0.034,-0.198 0.037,-0.1 0.114,-0.168 -0.003,-0.017 -0.014,-0.023 -0.012,-0.008 -0.029,-0.011 l -0.034,-0.006 q -0.014,-0.003 -0.026,-0.008 -0.017,-0.009 -0.022,-0.04 l -0.012,-0.068 q -0.002,-0.037 -0.008,-0.071 -0.003,-0.037 -0.017,-0.057 0.008,-0.083 0.028,-0.162 0.02,-0.08 0.02,-0.162 0,-0.06 -0.017,-0.094 -0.014,-0.034 -0.034,-0.057 l -0.037,-0.04 q -0.014,-0.02 -0.014,-0.048 0,-0.023 0.014,-0.043 l -0.023,-0.003 q -0.028,0 -0.042,0.014 -0.015,0.015 -0.029,0.032 -0.011,0.017 -0.025,0.03 -0.015,0.015 -0.04,0.015 -0.02,0 -0.046,-0.008 -0.048,0.014 -0.09,0.014 -0.1,0 -0.2,-0.026 -0.096,-0.028 -0.196,-0.028 -0.054,0 -0.105,0.005 -0.051,0.003 -0.102,0.003 -0.074,0 -0.148,-0.017 -0.074,-0.017 -0.131,-0.074 v -0.034 q 0,-0.15 0.1,-0.227 0.102,-0.077 0.247,-0.077 0.1,0 0.196,0.026 0.097,0.025 0.196,0.025 0.054,0 0.114,-0.011 0.06,-0.011 0.122,-0.026 0.063,-0.014 0.125,-0.025 0.066,-0.012 0.128,-0.012 0.097,0 0.182,0.043 0.085,0.04 0.17,0.077 l -0.002,0.022 q 0,0.026 0.011,0.049 l 0.032,0.042 q 0.017,0.02 0.028,0.043 0.014,0.02 0.014,0.046 0,0.026 -0.008,0.05 -0.006,0.024 -0.006,0.05 0,0.062 0.023,0.119 0.025,0.056 0.025,0.122 0,0.068 -0.017,0.133 -0.014,0.066 -0.014,0.134 0,0.082 0.02,0.165 0.02,0.082 0.02,0.165 0,0.068 -0.023,0.133 -0.02,0.066 -0.02,0.131 0,0.049 0.012,0.097 l 0.03,0.09 q 0.018,0.046 0.03,0.095 0.013,0.045 0.013,0.096 v 0.057 q 0,0.046 -0.008,0.088 -0.006,0.04 -0.037,0.077 0.014,0.054 0.028,0.117 0.017,0.062 0.017,0.12 0,0.028 -0.005,0.062 -0.003,0.031 -0.014,0.065 -0.009,0.031 -0.026,0.06 -0.017,0.025 -0.04,0.042 0.037,0.108 0.049,0.22 0.01,0.11 0.017,0.221 0.002,0.034 0.01,0.088 l 0.018,0.108 q 0.009,0.051 0.014,0.097 0.009,0.043 0.009,0.06 0,0.048 -0.017,0.094 -0.017,0.045 -0.017,0.093 0,0.037 0.017,0.08 0.017,0.04 0.062,0.04 0.034,0 0.057,-0.014 l 0.054,-0.035 q 0.029,-0.02 0.066,-0.034 0.04,-0.017 0.105,-0.017 0.074,0 0.139,0.02 0.065,0.02 0.14,0.02 0.053,0 0.107,-0.009 0.057,-0.01 0.108,-0.022 l 0.108,-0.026 q 0.054,-0.011 0.111,-0.011 0.114,0 0.19,0.065 0.08,0.066 0.08,0.194 z m -1.633,-3.54 q -0.01,-0.012 -0.028,-0.023 -0.014,-0.011 -0.034,-0.011 -0.014,0 -0.026,0.014 -0.008,0.011 -0.008,0.026 l 0.014,0.034 q 0.011,0.005 0.017,0.005 0.023,0 0.037,-0.014 0.017,-0.017 0.028,-0.031 z m 0.171,0.79 q 0,-0.022 -0.014,-0.045 -0.012,-0.026 -0.04,-0.026 -0.009,0 -0.02,0.003 l -0.014,0.006 v 0.122 q 0.023,0.011 0.034,0.011 0.028,0 0.04,-0.022 0.014,-0.026 0.014,-0.049 z m 4.951,2.716 q 0,0.051 -0.034,0.108 -0.032,0.057 -0.083,0.102 -0.048,0.049 -0.105,0.08 -0.057,0.031 -0.108,0.031 -0.088,0 -0.173,-0.014 -0.085,-0.014 -0.177,-0.014 -0.042,0 -0.1,-0.006 -0.053,-0.006 -0.076,-0.028 -0.065,-0.012 -0.097,-0.052 -0.03,-0.037 -0.056,-0.082 -0.023,-0.046 -0.052,-0.088 -0.025,-0.043 -0.08,-0.06 -0.161,0.071 -0.286,0.137 -0.123,0.065 -0.245,0.113 -0.12,0.051 -0.259,0.08 -0.136,0.031 -0.327,0.031 -0.082,0 -0.12,-0.008 -0.033,-0.009 -0.053,-0.029 -0.017,-0.017 -0.034,-0.048 -0.014,-0.031 -0.057,-0.077 -0.023,-0.023 -0.046,-0.025 -0.02,-0.006 -0.04,-0.006 h -0.014 q -0.025,0 -0.048,-0.009 -0.02,-0.011 -0.031,-0.057 -0.009,-0.034 -0.034,-0.076 -0.026,-0.046 -0.06,-0.091 -0.031,-0.046 -0.065,-0.083 -0.035,-0.037 -0.063,-0.057 l -0.003,-0.281 q -0.003,-0.284 0.017,-0.563 0.02,-0.279 0.02,-0.563 0,-0.043 -0.003,-0.117 -0.003,-0.076 -0.014,-0.153 -0.008,-0.077 -0.034,-0.137 -0.023,-0.062 -0.065,-0.074 -0.066,-0.014 -0.134,-0.01 -0.065,0 -0.13,-0.004 -0.066,-0.003 -0.129,-0.02 -0.06,-0.017 -0.113,-0.074 -0.032,-0.03 -0.06,-0.076 -0.026,-0.046 -0.026,-0.094 0,-0.071 0.06,-0.12 0.062,-0.05 0.148,-0.082 0.085,-0.031 0.173,-0.046 0.088,-0.014 0.142,-0.014 0.157,0 0.296,0.049 0.142,0.045 0.259,0.15 0.005,0.006 0.005,0.012 0,0.003 -0.002,0.005 0.005,0.083 0.022,0.165 0.017,0.08 0.017,0.162 0,0.046 -0.014,0.086 -0.011,0.04 -0.011,0.088 0,0.048 0.011,0.096 0.011,0.048 0.012,0.097 0,0.031 -0.006,0.063 -0.006,0.03 -0.006,0.062 0,0.088 0.02,0.174 0.02,0.082 0.02,0.17 0,0.077 -0.017,0.15 -0.017,0.072 -0.04,0.146 -0.02,0.074 -0.037,0.148 -0.017,0.07 -0.017,0.148 0,0.105 0.043,0.196 0.042,0.09 0.114,0.159 0.07,0.065 0.162,0.105 0.093,0.037 0.196,0.037 0.088,0 0.142,-0.017 0.057,-0.02 0.09,-0.043 0.035,-0.022 0.055,-0.04 0.023,-0.02 0.045,-0.02 0.023,0 0.04,0.006 0.02,0.003 0.04,0.003 0.04,0 0.065,-0.017 0.026,-0.017 0.046,-0.04 l 0.043,-0.042 q 0.022,-0.023 0.056,-0.031 0.066,-0.015 0.114,-0.037 0.048,-0.026 0.048,-0.103 0,-0.014 0.003,-0.025 0.006,-0.012 0.029,-0.012 0.014,0 0.02,0.009 l 0.022,0.011 q 0.015,-0.011 0.02,-0.031 0.005,-0.02 0.012,-0.034 0.014,-0.051 0.05,-0.091 0.04,-0.04 0.046,-0.091 0.006,-0.057 0.029,-0.105 0.023,-0.048 0.023,-0.103 0,-0.048 -0.026,-0.085 -0.026,-0.037 -0.026,-0.088 0,-0.057 0.02,-0.114 0.023,-0.057 0.023,-0.114 -0.017,-0.022 -0.034,-0.05 -0.014,-0.03 -0.014,-0.058 0,-0.048 0.017,-0.062 0.017,-0.017 0.017,-0.034 0,-0.026 -0.014,-0.052 -0.012,-0.028 -0.029,-0.054 -0.017,-0.025 -0.031,-0.05 -0.012,-0.026 -0.012,-0.055 0,-0.028 0.009,-0.054 0.011,-0.028 0.011,-0.06 0,-0.045 -0.022,-0.08 -0.02,-0.036 -0.054,-0.059 -0.032,-0.025 -0.074,-0.037 -0.04,-0.014 -0.08,-0.02 -0.071,-0.008 -0.122,-0.008 -0.051,0 -0.091,-0.012 -0.037,-0.014 -0.071,-0.048 -0.031,-0.034 -0.066,-0.11 -0.02,-0.046 -0.02,-0.078 0,-0.068 0.06,-0.108 0.063,-0.042 0.145,-0.062 0.083,-0.023 0.165,-0.029 0.085,-0.008 0.134,-0.008 0.045,0 0.088,0.008 0.045,0.006 0.09,0.006 0.05,0 0.095,-0.017 0.048,-0.02 0.096,-0.02 0.069,0 0.111,0.04 0.043,0.037 0.066,0.1 0.025,0.06 0.034,0.139 0.008,0.077 0.008,0.156 0,0.105 -0.008,0.2 -0.006,0.093 -0.006,0.15 0,0.122 0.023,0.23 0.025,0.105 0.025,0.196 0,0.029 -0.014,0.057 -0.011,0.029 -0.025,0.057 l -0.029,0.057 q -0.011,0.028 -0.011,0.057 0,0.023 0.008,0.04 l 0.02,0.165 q -0.014,0.01 -0.017,0.028 -0.003,0.017 -0.003,0.031 0,0.046 0.009,0.091 0.011,0.043 0.011,0.091 0,0.054 -0.011,0.108 -0.012,0.051 -0.012,0.105 0,0.131 0.089,0.202 0.09,0.069 0.213,0.069 0.068,0 0.136,-0.023 0.02,0.043 0.054,0.077 0.037,0.03 0.071,0.062 0.034,0.031 0.057,0.071 0.026,0.04 0.026,0.097 z m 2.931,-0.831 q 0,0.091 -0.02,0.174 -0.02,0.08 -0.045,0.159 l -0.054,0.159 q -0.026,0.08 -0.04,0.165 -0.025,0.142 -0.102,0.236 -0.077,0.094 -0.185,0.148 -0.108,0.057 -0.242,0.082 -0.13,0.029 -0.27,0.043 -0.14,0.014 -0.276,0.02 -0.133,0.005 -0.247,0.02 -0.043,-0.032 -0.071,-0.069 l -0.054,-0.07 q -0.026,-0.032 -0.057,-0.055 -0.031,-0.02 -0.082,-0.02 -0.017,0 -0.029,-0.045 l -0.017,-0.105 q -0.008,-0.06 -0.02,-0.106 -0.008,-0.048 -0.025,-0.048 -0.066,0 -0.106,-0.028 -0.036,-0.029 -0.06,-0.071 -0.02,-0.046 -0.028,-0.1 -0.005,-0.054 -0.005,-0.105 0,-0.04 -0.017,-0.074 -0.017,-0.034 -0.037,-0.065 -0.02,-0.035 -0.037,-0.069 -0.017,-0.034 -0.017,-0.07 0,-0.043 0.003,-0.106 0.005,-0.065 0.008,-0.134 0.006,-0.068 0.009,-0.133 0.005,-0.066 0.005,-0.108 0,-0.051 0.012,-0.086 0.014,-0.034 0.031,-0.06 0.017,-0.025 0.028,-0.045 0.015,-0.02 0.015,-0.045 0,-0.034 -0.017,-0.057 -0.015,-0.023 -0.015,-0.046 0,-0.03 0.02,-0.06 0.02,-0.03 0.029,-0.062 0.031,-0.125 0.031,-0.247 0,-0.026 -0.003,-0.049 0,-0.025 -0.003,-0.048 -0.065,-0.054 -0.145,-0.068 -0.08,-0.017 -0.159,-0.023 -0.08,-0.008 -0.154,-0.02 -0.073,-0.011 -0.125,-0.06 -0.042,-0.04 -0.076,-0.088 -0.034,-0.05 -0.091,-0.068 -0.04,-0.014 -0.069,-0.037 -0.025,-0.025 -0.025,-0.07 0,-0.07 0.04,-0.103 0.042,-0.037 0.1,-0.057 0.056,-0.023 0.116,-0.037 0.062,-0.017 0.105,-0.048 0.043,-0.032 0.102,-0.032 0.026,0 0.049,0.003 h 0.05 q 0.072,0 0.117,-0.022 0.049,-0.026 0.074,-0.066 0.029,-0.043 0.037,-0.097 0.012,-0.054 0.012,-0.116 0,-0.091 -0.012,-0.176 -0.012,-0.085 -0.011,-0.177 0,-0.105 0.028,-0.193 0.029,-0.088 0.108,-0.162 0.017,-0.014 0.037,-0.037 0.02,-0.023 0.043,-0.043 0.023,-0.022 0.045,-0.037 0.026,-0.014 0.052,-0.014 0.017,0 0.028,0.009 0.014,0.005 0.028,0.017 0.063,0.062 0.08,0.094 0.02,0.028 0.02,0.068 0,0.023 -0.003,0.051 v 0.068 q 0,0.091 0.023,0.18 0.023,0.088 0.023,0.15 0,0.054 -0.023,0.105 -0.02,0.049 -0.02,0.103 0,0.04 0.017,0.074 l 0.043,0.062 q 0.025,0.031 0.045,0.066 0.02,0.03 0.02,0.073 0.028,0.02 0.128,0.037 0.1,0.015 0.222,0.026 0.122,0.009 0.247,0.014 0.125,0.006 0.208,0.006 0.074,0 0.113,0.011 0.04,0.012 0.066,0.026 0.028,0.011 0.05,0.025 0.024,0.015 0.06,0.018 0.046,0.005 0.077,0.025 0.034,0.017 0.034,0.071 0,0.068 -0.036,0.108 -0.035,0.04 -0.089,0.06 -0.05,0.02 -0.11,0.026 l -0.111,0.002 q -0.083,0 -0.165,-0.005 -0.083,-0.006 -0.165,-0.006 -0.137,0 -0.248,0.026 -0.11,0.025 -0.193,0.085 -0.08,0.06 -0.125,0.16 -0.043,0.096 -0.043,0.244 0,0.145 0.017,0.284 0.02,0.14 0.02,0.284 0,0.137 0.003,0.22 0.006,0.082 0.034,0.139 0.037,0.082 0.06,0.187 0.023,0.105 0.057,0.2 0.037,0.093 0.1,0.158 0.065,0.063 0.19,0.063 0.043,0 0.114,-0.011 0.07,-0.012 0.142,-0.035 0.07,-0.025 0.122,-0.062 0.051,-0.04 0.051,-0.097 0,-0.048 -0.028,-0.096 -0.029,-0.052 -0.029,-0.108 0,-0.04 0.017,-0.069 0.02,-0.031 0.049,-0.054 0.031,-0.025 0.062,-0.042 0.034,-0.02 0.066,-0.034 0.05,-0.066 0.122,-0.108 0.074,-0.046 0.156,-0.046 0.057,0 0.108,0.02 0.054,0.02 0.1,0.051 0.008,0.051 0.008,0.105 z m 2.053,-2.555 q 0,0.083 -0.028,0.17 -0.026,0.086 -0.077,0.16 -0.051,0.071 -0.125,0.12 -0.071,0.045 -0.16,0.045 -0.06,0 -0.147,-0.017 -0.089,-0.02 -0.171,-0.054 -0.08,-0.037 -0.14,-0.094 -0.056,-0.057 -0.056,-0.134 0,-0.068 0.014,-0.139 0.017,-0.074 0.02,-0.148 0.028,-0.014 0.057,-0.05 l 0.054,-0.075 q 0.028,-0.04 0.054,-0.07 0.028,-0.032 0.057,-0.035 l -0.015,0.006 q 0.04,-0.017 0.083,-0.029 0.045,-0.011 0.09,-0.011 0.06,0 0.143,0.031 0.085,0.029 0.162,0.077 0.077,0.048 0.13,0.114 0.053,0.066 0.055,0.133 z m 1.376,3.46 q 0,0.049 -0.02,0.091 -0.017,0.043 -0.051,0.074 -0.031,0.034 -0.074,0.054 -0.043,0.02 -0.094,0.02 -0.02,0 -0.025,-0.005 -0.005,-0.005 -0.02,-0.02 -0.04,-0.043 -0.097,-0.052 -0.057,-0.005 -0.12,-0.014 -0.059,-0.005 -0.116,-0.031 -0.054,-0.023 -0.088,-0.097 -0.023,-0.048 -0.048,-0.062 -0.026,-0.014 -0.08,-0.014 -0.125,0 -0.239,0.04 -0.114,0.04 -0.224,0.09 -0.111,0.049 -0.228,0.088 -0.114,0.04 -0.236,0.04 -0.068,0 -0.136,-0.014 -0.066,-0.011 -0.128,-0.04 -0.014,0.014 -0.034,0.02 -0.017,0.006 -0.04,0.006 -0.02,0 -0.04,-0.003 -0.017,-0.003 -0.031,-0.003 l -0.032,0.009 -0.034,0.014 0.017,0.028 q -0.017,0.026 -0.076,0.049 -0.06,0.025 -0.131,0.042 -0.068,0.017 -0.134,0.029 -0.066,0.012 -0.1,0.011 -0.09,0 -0.15,-0.031 -0.057,-0.029 -0.114,-0.103 -0.02,-0.028 -0.05,-0.056 l -0.058,-0.057 q -0.025,-0.032 -0.045,-0.066 -0.017,-0.034 -0.017,-0.07 0,-0.043 0.045,-0.072 0.046,-0.028 0.108,-0.045 0.063,-0.02 0.125,-0.026 0.063,-0.008 0.097,-0.008 0.068,0 0.136,0.02 0.069,0.016 0.137,0.016 0.062,0 0.12,-0.017 0.058,-0.017 0.119,-0.017 0.054,0 0.105,0.009 0.054,0.006 0.108,0.006 0.068,0 0.13,-0.023 0.066,-0.026 0.123,-0.066 0.023,-0.139 0.031,-0.278 0.012,-0.14 0.012,-0.282 0,-0.139 -0.023,-0.278 -0.023,-0.139 -0.023,-0.276 0,-0.011 0.006,-0.011 0.006,-0.003 0.011,-0.003 l 0.014,-0.006 q 0.006,-0.006 0.006,-0.023 0,-0.06 -0.017,-0.116 -0.017,-0.056 -0.017,-0.117 0,-0.074 0.02,-0.145 0.02,-0.071 0.02,-0.145 0,-0.051 -0.023,-0.102 -0.023,-0.051 -0.06,-0.091 -0.037,-0.04 -0.085,-0.063 -0.048,-0.025 -0.102,-0.025 -0.06,0 -0.12,0.014 -0.057,0.014 -0.12,0.034 -0.062,0.017 -0.127,0.031 -0.063,0.014 -0.134,0.014 -0.082,0 -0.162,-0.01 -0.08,-0.012 -0.162,-0.027 l -0.09,-0.01 q -0.05,-0.007 -0.095,-0.02 -0.045,-0.015 -0.076,-0.043 -0.032,-0.029 -0.032,-0.083 0,-0.1 0.035,-0.15 0.036,-0.055 0.088,-0.08 0.054,-0.026 0.12,-0.031 0.066,-0.005 0.124,-0.012 l 0.213,-0.014 q 0.108,-0.009 0.216,-0.009 0.134,0 0.262,0.017 0.13,0.015 0.264,0.015 0.094,0 0.18,0.028 0.086,0.028 0.147,0.088 0.066,0.057 0.103,0.145 0.037,0.088 0.037,0.205 0,0.077 -0.034,0.15 -0.032,0.072 -0.083,0.129 0.02,0.036 0.04,0.05 l 0.037,0.023 q 0.017,0.009 0.028,0.026 0.012,0.014 0.012,0.057 0,0.023 0.005,0.054 0.009,0.028 0.04,0.031 0,0.154 -0.003,0.304 -0.003,0.148 -0.003,0.299 v 0.256 q 0.003,0.128 0.023,0.256 0.012,0.08 0.046,0.122 0.034,0.042 0.122,0.043 0.128,0 0.253,-0.026 0.125,-0.028 0.253,-0.028 0.074,0 0.14,0.037 0.068,0.037 0.127,0.08 l 0.12,0.079 q 0.057,0.037 0.108,0.037 0.023,0 0.037,0.017 0.014,0.014 0.02,0.037 0.008,0.02 0.008,0.042 0.003,0.023 0.003,0.04 z m 3.169,-1.137 q 0,0.04 -0.015,0.077 -0.01,0.034 -0.028,0.06 -0.014,0.025 -0.028,0.042 -0.012,0.017 -0.012,0.02 0,0.029 0.017,0.06 0.02,0.031 0.02,0.068 0,0.017 -0.014,0.023 -0.011,0.006 -0.026,0.006 -0.025,0 -0.042,-0.006 0.003,0.054 0.008,0.105 0.009,0.051 0.009,0.105 0,0.083 -0.017,0.108 -0.014,0.023 -0.032,0.029 l -0.034,0.014 q -0.014,0.006 -0.014,0.051 0,0.026 -0.037,0.066 -0.034,0.04 -0.085,0.08 -0.048,0.04 -0.103,0.068 -0.05,0.028 -0.082,0.028 -0.009,0 -0.02,-0.006 0,0.023 0.003,0.049 0.003,0.025 0.003,0.048 0,0.037 -0.023,0.051 l -0.051,0.023 q -0.043,0.02 -0.088,0.06 l -0.094,0.076 q -0.048,0.04 -0.1,0.069 -0.048,0.03 -0.102,0.03 -0.045,0 -0.085,-0.022 -0.037,-0.023 -0.088,-0.023 -0.046,0 -0.077,0.012 l -0.06,0.028 q -0.025,0.017 -0.054,0.029 -0.028,0.014 -0.065,0.014 -0.074,0 -0.148,-0.04 -0.074,-0.037 -0.142,-0.06 -0.04,-0.014 -0.085,-0.022 -0.046,-0.006 -0.089,-0.015 -0.042,-0.008 -0.082,-0.028 -0.037,-0.017 -0.065,-0.051 -0.06,-0.074 -0.14,-0.122 -0.08,-0.049 -0.162,-0.091 -0.082,-0.043 -0.159,-0.089 -0.077,-0.048 -0.134,-0.125 -0.042,-0.06 -0.096,-0.128 -0.054,-0.07 -0.103,-0.148 -0.045,-0.076 -0.076,-0.156 -0.032,-0.08 -0.032,-0.156 0,-0.057 0.012,-0.111 l 0.022,-0.108 q 0.015,-0.057 0.026,-0.111 0.011,-0.054 0.011,-0.11 v -0.032 q 0,-0.012 -0.008,-0.026 -0.009,-0.014 -0.02,-0.025 -0.009,-0.015 -0.02,-0.023 -0.009,-0.012 -0.011,-0.012 -0.006,0 -0.006,0.003 0.003,-0.025 0.014,-0.076 0.014,-0.054 0.031,-0.108 0.017,-0.057 0.035,-0.103 0.017,-0.048 0.03,-0.062 l 0.032,-0.029 q 0.017,-0.017 0.017,-0.042 0,-0.025 -0.003,-0.049 -0.003,-0.025 -0.003,-0.051 0,-0.034 0.009,-0.04 0.008,-0.008 0.023,-0.008 0.015,0 0.028,-0.003 0.014,-0.006 0.029,-0.032 l 0.048,-0.093 q 0.025,-0.046 0.054,-0.083 0.028,-0.037 0.065,-0.068 0.037,-0.031 0.091,-0.06 0.046,-0.025 0.088,-0.062 l 0.091,-0.074 q 0.046,-0.037 0.091,-0.063 0.049,-0.025 0.103,-0.025 0.077,0 0.148,-0.026 0.074,-0.028 0.147,-0.043 0.117,-0.017 0.23,-0.03 0.117,-0.018 0.237,-0.018 0.065,0 0.159,0.023 0.094,0.02 0.19,0.054 0.1,0.034 0.185,0.077 0.088,0.042 0.14,0.085 v 0.008 q 0,0.04 -0.015,0.083 -0.014,0.04 -0.014,0.08 v 0.01 q 0,0.006 0.006,0.007 0.048,0 0.09,-0.012 0.046,-0.014 0.095,-0.014 0.005,0.048 0.042,0.065 l 0.074,0.032 q 0.034,0.017 0.063,0.062 0.031,0.043 0.057,0.1 l 0.048,0.108 q 0.026,0.054 0.048,0.088 0.023,0.034 0.04,0.082 0.02,0.046 0.031,0.097 0.015,0.051 0.02,0.102 0.006,0.049 0.006,0.091 0,0.057 -0.023,0.097 -0.02,0.037 -0.045,0.068 l -0.049,0.057 q -0.02,0.026 -0.02,0.06 0,0.02 0.01,0.037 0.01,0.017 0.022,0.031 0.006,-0.003 0.023,-0.006 0.02,-0.002 0.02,-0.017 v -0.003 q 0,-0.022 -0.02,-0.042 -0.017,-0.02 -0.017,-0.048 0,-0.006 0.005,-0.018 0.006,-0.014 0.014,-0.014 0.017,0 0.035,0.023 0.017,0.02 0.03,0.045 0.018,0.023 0.026,0.04 0.008,0.017 0.009,0.012 l -0.003,-0.003 q 0.003,0.014 0.003,0.025 0.003,0.009 0.003,0.02 z m -0.285,0.023 q 0,-0.045 -0.034,-0.054 -0.034,-0.011 -0.077,-0.014 -0.042,-0.003 -0.085,-0.009 -0.04,-0.005 -0.054,-0.042 v -0.029 q 0,-0.062 -0.017,-0.145 -0.014,-0.085 -0.037,-0.17 -0.023,-0.089 -0.048,-0.171 -0.026,-0.085 -0.049,-0.15 l -0.036,-0.106 -0.015,-0.04 q -0.022,0.006 -0.037,0.006 -0.048,0 -0.085,-0.02 -0.034,-0.02 -0.08,-0.043 -0.042,-0.022 -0.108,-0.042 -0.062,-0.02 -0.167,-0.02 -0.117,0 -0.23,-0.014 -0.114,-0.017 -0.23,-0.017 -0.16,0 -0.3,0.074 -0.139,0.07 -0.244,0.19 -0.105,0.117 -0.165,0.265 -0.06,0.147 -0.06,0.298 0,0.063 0.003,0.148 0.003,0.082 0.015,0.168 0.01,0.082 0.036,0.156 0.026,0.071 0.072,0.108 v 0.08 q 0.01,0.011 0.028,0.014 h 0.037 q 0.02,0 0.034,0.006 0.014,0.002 0.023,0.022 0.037,0.106 0.096,0.162 0.06,0.054 0.128,0.094 0.069,0.037 0.137,0.077 0.068,0.037 0.125,0.11 0.023,-0.002 0.048,-0.002 0.026,-0.003 0.049,-0.003 0.09,0 0.176,0.014 0.088,0.012 0.176,0.012 0.094,0 0.168,-0.049 0.077,-0.048 0.13,-0.122 0.035,-0.048 0.063,-0.082 0.029,-0.035 0.057,-0.063 0.031,-0.031 0.066,-0.057 0.036,-0.028 0.085,-0.062 l 0.04,-0.029 q 0.025,-0.017 0.048,-0.037 0.026,-0.023 0.043,-0.042 0.017,-0.023 0.017,-0.043 0,-0.026 -0.009,-0.051 -0.006,-0.026 -0.006,-0.051 0,-0.029 0.009,-0.069 0.008,-0.04 0.026,-0.076 0.02,-0.037 0.045,-0.06 0.028,-0.026 0.068,-0.026 0.032,0 0.063,0.014 0.031,0.015 0.057,0.035 0.005,-0.029 0.005,-0.043 z m 4.086,1.146 q 0,0.04 -0.02,0.065 -0.02,0.025 -0.052,0.04 -0.028,0.014 -0.065,0.017 -0.034,0.006 -0.065,0.006 -0.043,0 -0.086,-0.006 l -0.085,-0.011 q -0.057,0.02 -0.136,0.04 -0.077,0.022 -0.14,0.022 -0.017,0 -0.034,-0.005 -0.014,-0.006 -0.028,-0.006 -0.049,0 -0.1,0.017 -0.048,0.02 -0.096,0.02 -0.083,0 -0.16,-0.023 -0.074,-0.02 -0.156,-0.025 -0.134,-0.012 -0.208,-0.103 -0.07,-0.093 -0.076,-0.221 0.088,-0.054 0.184,-0.074 0.1,-0.02 0.2,-0.02 0.056,0 0.11,0.003 l 0.114,0.008 q -0.009,-0.213 -0.037,-0.426 -0.028,-0.214 -0.028,-0.43 0,-0.074 0.003,-0.147 0.005,-0.074 0.02,-0.148 0.015,-0.074 0.036,-0.145 0.023,-0.074 0.023,-0.148 0,-0.048 -0.014,-0.088 -0.014,-0.043 -0.037,-0.086 -0.02,-0.034 -0.026,-0.076 -0.005,-0.043 -0.014,-0.086 -0.008,-0.045 -0.025,-0.088 -0.017,-0.042 -0.057,-0.077 -0.037,-0.034 -0.105,-0.054 -0.069,-0.02 -0.18,-0.02 -0.034,0 -0.102,0.012 -0.065,0.008 -0.136,0.026 -0.069,0.014 -0.131,0.036 -0.06,0.02 -0.083,0.043 l -0.037,0.04 -0.045,0.054 q -0.023,0.026 -0.046,0.048 -0.022,0.02 -0.04,0.023 l -0.065,0.014 q -0.02,0.006 -0.034,0.017 -0.011,0.012 -0.02,0.034 -0.008,0.02 -0.028,0.06 l -0.023,0.046 q -0.017,0.03 -0.034,0.03 -0.014,0 -0.02,-0.01 -0.006,-0.012 -0.02,-0.012 -0.006,0 -0.017,0.009 -0.009,0.005 -0.014,0.011 v 0.08 q -0.02,0.022 -0.037,0.025 -0.014,0 -0.026,0.003 -0.008,0.003 -0.014,0.014 -0.003,0.012 -0.003,0.054 0,0.032 -0.014,0.057 -0.014,0.026 -0.031,0.051 L 121,160.984 q -0.014,0.026 -0.014,0.06 0,0.057 0.014,0.111 0.017,0.051 0.017,0.108 0,0.037 -0.011,0.063 -0.011,0.025 -0.029,0.048 -0.014,0.02 -0.025,0.04 -0.011,0.02 -0.011,0.048 0,0.04 0.014,0.074 l 0.034,0.065 q 0.017,0.035 0.031,0.071 0.017,0.037 0.017,0.08 0,0.048 -0.011,0.1 -0.012,0.048 -0.012,0.1 0,0.059 0.018,0.093 0.02,0.031 0.048,0.048 0.031,0.017 0.07,0.026 0.04,0.008 0.08,0.025 0.043,0.015 0.086,0.043 0.042,0.026 0.08,0.08 l 0.016,-0.003 q 0.049,0 0.072,0.04 0.023,0.04 0.022,0.082 0,0.04 -0.017,0.071 -0.017,0.029 -0.017,0.077 0,0.034 -0.074,0.057 -0.074,0.023 -0.167,0.034 -0.094,0.014 -0.182,0.017 -0.086,0.006 -0.114,0.006 l -0.105,-0.003 q -0.069,0 -0.157,-0.006 -0.085,-0.003 -0.179,-0.011 -0.094,-0.009 -0.173,-0.026 -0.08,-0.014 -0.137,-0.04 -0.054,-0.022 -0.068,-0.057 -0.014,-0.034 -0.028,-0.074 -0.015,-0.042 -0.015,-0.082 0,-0.043 0.02,-0.077 0.023,-0.034 0.054,-0.062 0.043,-0.04 0.094,-0.046 0.051,-0.008 0.1,-0.008 0.05,-0.003 0.096,-0.009 0.049,-0.008 0.083,-0.045 0.037,-0.037 0.057,-0.117 0.022,-0.08 0.022,-0.225 0,-0.037 -0.005,-0.073 -0.006,-0.04 -0.015,-0.074 l -0.014,-0.066 q -0.005,-0.028 -0.005,-0.042 0,-0.017 0.008,-0.037 l 0.023,-0.04 q 0.014,-0.023 0.023,-0.049 0.011,-0.025 0.011,-0.056 0,-0.049 -0.02,-0.094 -0.017,-0.046 -0.017,-0.094 0,-0.04 0.014,-0.077 0.014,-0.037 0.014,-0.077 0,-0.03 -0.017,-0.06 -0.017,-0.028 -0.017,-0.062 0,-0.031 0.012,-0.062 0.011,-0.035 0.011,-0.069 0,-0.074 -0.017,-0.15 l -0.031,-0.154 q -0.017,-0.088 -0.066,-0.13 -0.045,-0.046 -0.105,-0.069 -0.06,-0.023 -0.125,-0.037 -0.065,-0.014 -0.12,-0.042 -0.053,-0.032 -0.09,-0.086 -0.034,-0.057 -0.034,-0.165 0,-0.074 0.042,-0.113 0.046,-0.04 0.108,-0.057 0.063,-0.02 0.131,-0.023 0.071,-0.003 0.122,-0.003 0.083,0 0.162,0.026 0.083,0.022 0.165,0.028 0.037,0.003 0.071,0.026 0.034,0.02 0.063,0.05 0.028,0.03 0.045,0.066 0.017,0.036 0.02,0.074 0,0.017 0.012,0.063 l 0.025,0.088 q 0.017,0.045 0.034,0.082 0.02,0.034 0.04,0.034 0.017,-0.014 0.023,-0.03 0.009,-0.02 0.014,-0.038 0.003,-0.017 0.037,-0.045 0.037,-0.029 0.08,-0.06 l 0.085,-0.06 q 0.043,-0.028 0.06,-0.045 0.017,-0.02 0.025,-0.04 l 0.02,-0.04 q 0.012,-0.02 0.026,-0.031 0.017,-0.011 0.051,-0.011 h 0.014 q 0.031,0 0.06,-0.026 0.028,-0.028 0.074,-0.063 0.045,-0.034 0.12,-0.06 0.073,-0.028 0.195,-0.028 0.106,0 0.21,0.006 0.106,0.003 0.2,0.028 0.097,0.026 0.179,0.08 0.085,0.054 0.148,0.15 0.048,0.078 0.08,0.114 0.03,0.037 0.05,0.072 0.02,0.034 0.026,0.082 0.009,0.048 0.009,0.145 0,0.04 0.014,0.074 l 0.031,0.071 q 0.02,0.034 0.034,0.074 0.015,0.04 0.015,0.09 0,0.1 -0.012,0.2 -0.011,0.097 -0.011,0.196 0,0.071 -0.029,0.14 -0.025,0.068 -0.025,0.139 0,0.034 0.017,0.065 0.017,0.031 0.017,0.071 0,0.049 -0.012,0.1 -0.011,0.048 -0.011,0.096 0,0.046 0.02,0.08 0.023,0.034 0.023,0.077 0,0.023 -0.012,0.037 -0.008,0.014 -0.022,0.028 -0.012,0.014 -0.023,0.031 -0.009,0.015 -0.009,0.037 0,0.043 0.02,0.089 0.023,0.042 0.057,0.08 0.034,0.033 0.077,0.056 0.042,0.02 0.085,0.02 0.037,0 0.063,-0.014 0.028,-0.017 0.06,-0.017 0.04,0 0.07,0.034 0.035,0.031 0.057,0.077 0.026,0.045 0.037,0.093 0.014,0.049 0.014,0.08 z m -0.615,-1.072 q 0,-0.028 -0.02,-0.054 -0.017,-0.028 -0.048,-0.028 -0.031,0 -0.042,0.031 -0.012,0.028 -0.012,0.054 0,0.031 0.012,0.06 0.01,0.028 0.045,0.028 0.028,0 0.043,-0.017 0.017,-0.02 0.022,-0.068 z m 0.049,0.546 q 0,-0.02 -0.017,-0.031 -0.015,-0.014 -0.032,-0.023 -0.005,0.017 -0.02,0.034 -0.015,0.017 -0.028,0.037 l -0.028,0.04 q -0.012,0.02 -0.012,0.04 0,0.022 0.014,0.034 0.015,0.011 0.034,0.02 0.003,-0.017 0.018,-0.034 0.017,-0.017 0.03,-0.037 l 0.026,-0.037 q 0.015,-0.02 0.015,-0.043 z m -1.891,-0.611 q 0,-0.02 -0.009,-0.049 -0.005,-0.028 -0.02,-0.054 -0.01,-0.028 -0.03,-0.045 -0.018,-0.02 -0.043,-0.02 -0.032,0 -0.054,0.02 -0.023,0.017 -0.057,0.017 h -0.012 q -0.008,0.031 -0.008,0.06 l 0.003,0.017 0.003,-0.009 q 0.008,0.031 0.034,0.049 0.025,0.017 0.054,0.03 l 0.062,0.024 q 0.032,0.011 0.054,0.03 0.023,-0.025 0.023,-0.07 z m 5.378,0.34 q 0,0.037 -0.014,0.074 -0.011,0.034 -0.028,0.071 l -0.034,0.068 q -0.015,0.035 -0.02,0.072 -0.014,0.076 -0.06,0.139 -0.043,0.06 -0.1,0.114 -0.056,0.054 -0.119,0.105 -0.062,0.048 -0.11,0.1 -0.043,0.042 -0.092,0.042 -0.028,0 -0.054,-0.006 -0.025,-0.006 -0.054,-0.006 -0.04,0 -0.065,0.015 -0.023,0.014 -0.046,0.031 -0.02,0.014 -0.05,0.028 -0.03,0.015 -0.08,0.015 -0.037,0 -0.072,0.02 -0.034,0.02 -0.068,0.02 -0.048,0 -0.114,-0.029 -0.062,-0.028 -0.139,-0.028 -0.048,0 -0.097,0.005 -0.048,0.003 -0.096,0.003 -0.043,0 -0.085,-0.011 l -0.08,-0.029 q -0.037,-0.017 -0.077,-0.028 -0.04,-0.014 -0.082,-0.014 -0.086,0 -0.145,0.042 -0.06,0.043 -0.108,0.094 -0.046,0.054 -0.094,0.097 -0.046,0.042 -0.105,0.042 -0.054,0 -0.074,-0.02 -0.017,-0.016 -0.023,-0.042 l -0.006,-0.057 q -0.003,-0.028 -0.025,-0.051 -0.043,-0.046 -0.057,-0.083 -0.014,-0.04 -0.014,-0.102 0,-0.136 0.022,-0.264 0.026,-0.131 0.026,-0.268 0,-0.048 -0.011,-0.093 -0.012,-0.046 -0.029,-0.083 l -0.025,-0.062 q -0.012,-0.026 -0.012,-0.037 0,-0.026 0.014,-0.054 0.015,-0.029 0.032,-0.052 0.02,-0.025 0.04,-0.04 0.022,-0.016 0.036,-0.016 0.029,0 0.049,0.014 0.022,0.014 0.042,0.031 0.023,0.014 0.043,0.029 0.023,0.014 0.054,0.014 h 0.009 q 0.002,-0.003 0.008,-0.003 0.04,0.065 0.063,0.142 l 0.045,0.148 q 0.026,0.07 0.06,0.14 0.037,0.065 0.102,0.116 l 0.04,0.031 0.046,0.034 q 0.025,0.017 0.048,0.029 0.025,0.011 0.045,0.011 0.032,0 0.06,-0.006 0.031,-0.005 0.063,-0.005 0.042,0 0.042,0.028 0,0.006 -0.005,0.023 h 0.054 q 0.108,0 0.216,-0.026 0.108,-0.025 0.219,-0.025 0.05,0 0.102,0.011 0.054,0.009 0.097,0.04 0.054,-0.026 0.09,-0.066 0.037,-0.04 0.074,-0.076 0.037,-0.04 0.083,-0.069 0.045,-0.03 0.116,-0.034 0.015,-0.017 0.015,-0.04 0.003,-0.022 0.003,-0.042 0,-0.023 0.002,-0.043 0.006,-0.02 0.023,-0.037 0.029,-0.025 0.043,-0.05 0.017,-0.03 0.017,-0.07 0,-0.076 -0.043,-0.141 -0.042,-0.069 -0.11,-0.123 -0.066,-0.056 -0.154,-0.1 -0.085,-0.045 -0.176,-0.076 -0.089,-0.031 -0.171,-0.045 -0.082,-0.017 -0.145,-0.017 -0.071,0 -0.142,0.014 -0.068,0.011 -0.134,0.042 0,-0.062 -0.028,-0.082 -0.029,-0.02 -0.068,-0.028 -0.04,-0.009 -0.083,-0.023 -0.04,-0.017 -0.062,-0.071 -0.049,0.062 -0.123,0.09 -0.07,0.03 -0.145,0.03 -0.075,0 -0.136,-0.03 -0.063,-0.028 -0.114,-0.076 -0.048,-0.048 -0.08,-0.111 -0.028,-0.063 -0.03,-0.134 -0.004,-0.048 -0.02,-0.085 -0.018,-0.037 -0.038,-0.071 -0.02,-0.034 -0.037,-0.071 -0.014,-0.037 -0.014,-0.088 0,-0.128 0.012,-0.2 0.014,-0.073 0.034,-0.11 0.02,-0.04 0.042,-0.054 0.026,-0.017 0.051,-0.031 0.026,-0.017 0.049,-0.046 0.023,-0.028 0.037,-0.09 0.008,-0.044 0.025,-0.058 0.017,-0.014 0.06,-0.02 0.037,-0.005 0.048,-0.017 0.012,-0.011 0.015,-0.025 l 0.01,-0.029 q 0.007,-0.017 0.03,-0.031 0.06,-0.04 0.116,-0.048 0.06,-0.012 0.122,-0.012 0.037,0 0.071,0.003 h 0.074 q 0.12,0 0.233,-0.011 0.114,-0.012 0.233,-0.012 0.091,0 0.165,0.02 0.077,0.017 0.134,0.04 0.057,0.023 0.097,0.043 0.042,0.017 0.068,0.017 0.048,0 0.09,-0.017 0.046,-0.02 0.095,-0.023 0.022,0.02 0.05,0.037 0.032,0.014 0.063,0.014 0.023,0 0.035,-0.014 0.011,-0.014 0.014,-0.037 0.04,0.011 0.077,0.04 0.037,0.028 0.065,0.068 0.031,0.037 0.048,0.083 0.017,0.042 0.017,0.082 0,0.105 -0.017,0.21 -0.014,0.103 -0.014,0.208 0,0.108 0.029,0.202 -0.04,0.031 -0.089,0.057 -0.045,0.022 -0.076,0.065 l -0.003,-0.003 -0.051,-0.043 q -0.029,-0.028 -0.063,-0.054 -0.031,-0.025 -0.063,-0.042 -0.03,-0.02 -0.056,-0.02 h -0.006 q -0.014,-0.009 -0.026,-0.02 -0.008,-0.011 -0.008,-0.028 0,-0.029 0.017,-0.052 0.017,-0.022 0.017,-0.05 0,-0.01 -0.026,-0.04 -0.025,-0.032 -0.06,-0.063 -0.03,-0.034 -0.062,-0.06 -0.031,-0.028 -0.045,-0.031 -0.029,-0.006 -0.06,-0.02 l -0.063,-0.028 q -0.031,-0.015 -0.06,-0.026 -0.025,-0.011 -0.042,-0.011 -0.037,0 -0.074,0.01 -0.037,0.01 -0.077,0.012 h 0.003 l -0.128,-0.014 q -0.094,-0.011 -0.185,-0.045 -0.09,-0.034 -0.187,-0.034 -0.086,0 -0.125,0.04 -0.04,0.04 -0.066,0.09 -0.025,0.049 -0.051,0.088 -0.026,0.04 -0.085,0.04 -0.017,0 -0.026,-0.003 0.029,0.091 0.051,0.154 0.026,0.062 0.06,0.114 0.034,0.048 0.085,0.093 0.052,0.043 0.131,0.094 0.009,0.006 0.023,0.02 0.017,0.014 0.034,0.031 l 0.031,0.026 q 0.017,0.011 0.026,0.011 0.048,0 0.09,-0.022 0.046,-0.023 0.095,-0.023 0.034,0 0.062,0.017 0.032,0.014 0.066,0.014 0.034,0 0.065,-0.011 0.031,-0.014 0.068,-0.014 0.014,0 0.029,0.003 l 0.031,0.005 q 0.085,0.023 0.17,0.023 0.086,-0.003 0.174,0 0.063,0 0.125,0.023 0.065,0.022 0.125,0.06 0.06,0.034 0.111,0.079 0.051,0.046 0.088,0.094 0.029,0.04 0.063,0.07 0.034,0.032 0.065,0.066 0.034,0.032 0.06,0.069 0.025,0.036 0.037,0.085 0.014,0.057 0.037,0.125 0.025,0.068 0.025,0.122 z m 1.961,0.174 q 0,0.102 -0.05,0.156 -0.05,0.054 -0.112,0.086 -0.06,0.031 -0.11,0.054 -0.052,0.02 -0.052,0.06 l 0.017,0.022 q 0.012,0 0.043,0.006 0.034,0.003 0.065,0.011 0.034,0.009 0.06,0.02 0.026,0.012 0.026,0.026 -0.003,0.011 -0.012,0.02 l -0.017,0.011 q -0.023,0.017 -0.043,0.02 -0.02,0.003 -0.034,0.009 -0.014,0.002 -0.025,0.017 -0.012,0.011 -0.02,0.05 -0.009,0.035 -0.031,0.052 -0.023,0.014 -0.049,0.026 -0.023,0.008 -0.042,0.02 -0.02,0.01 -0.02,0.036 v 0.006 q -0.066,-0.048 -0.145,-0.048 -0.083,0 -0.162,0.028 -0.08,0.026 -0.162,0.026 -0.069,0 -0.148,-0.04 -0.08,-0.04 -0.148,-0.1 -0.068,-0.062 -0.114,-0.136 -0.045,-0.077 -0.045,-0.15 0,-0.02 0.008,-0.035 0.012,-0.017 0.026,-0.031 -0.014,-0.037 -0.034,-0.048 -0.02,-0.012 -0.04,-0.017 -0.017,-0.006 -0.031,-0.018 -0.012,-0.014 -0.012,-0.054 0,-0.056 -0.008,-0.108 -0.006,-0.054 -0.006,-0.108 0,-0.03 0.003,-0.062 0.006,-0.031 0.017,-0.054 0.014,-0.026 0.037,-0.04 0.023,-0.017 0.06,-0.017 h 0.014 q -0.023,-0.031 -0.037,-0.068 -0.014,-0.04 -0.014,-0.08 v -0.011 q 0.003,-0.009 0.011,-0.009 0.014,0 0.026,0.009 l 0.028,0.008 0.026,-0.011 q 0.014,-0.014 0.014,-0.029 0,-0.014 -0.009,-0.022 -0.009,-0.008 -0.011,-0.023 0.011,-0.014 0.031,-0.017 l 0.037,-0.009 q 0.037,-0.008 0.048,-0.02 0.015,-0.011 0.018,-0.025 l 0.005,-0.031 q 0.006,-0.015 0.029,-0.026 0.017,-0.009 0.065,-0.017 l 0.102,-0.017 q 0.057,-0.009 0.108,-0.014 l 0.077,-0.009 q 0.017,0.031 0.068,0.048 0.054,0.015 0.123,0.023 0.069,0.008 0.145,0.017 0.076,0.009 0.139,0.029 0.065,0.02 0.105,0.057 0.043,0.036 0.043,0.1 l -0.003,0.025 -0.011,0.003 q -0.032,0 -0.057,-0.02 -0.026,-0.02 -0.057,-0.02 -0.014,-0.02 -0.051,0.008 -0.037,0.026 -0.069,0.063 -0.03,0.034 -0.042,0.065 -0.012,0.029 0.028,0.014 0.02,-0.005 0.037,-0.017 0.02,-0.014 0.043,-0.014 0.011,0 0.028,0.017 l 0.04,0.032 0.054,0.034 q 0.029,0.014 0.068,0.014 0.037,0 0.071,-0.017 l 0.026,0.13 q 0.014,0.066 0.014,0.134 z m -0.435,0.15 q -0.017,-0.033 -0.05,-0.048 l 0.002,0.006 q 0,0.011 -0.014,0.023 l -0.029,0.017 q -0.017,0.008 -0.031,0.017 -0.011,0.008 -0.011,0.014 0,0.009 0.017,0.012 l 0.022,0.002 q 0.02,0 0.057,-0.008 0.037,-0.012 0.037,-0.034 z m -0.213,-0.13 q -0.046,0.003 -0.091,0.014 -0.043,0.009 -0.091,0.009 -0.048,0 -0.102,-0.023 v 0.122 q 0.025,-0.014 0.05,-0.017 0.026,-0.006 0.055,-0.006 h 0.06 q 0.1,0 0.119,-0.1 z m -0.404,0.338 v -0.008 q 0,-0.034 -0.02,-0.051 -0.017,-0.017 -0.042,-0.029 -0.025,-0.012 -0.054,-0.02 -0.029,-0.011 -0.049,-0.028 0.009,0.159 0.162,0.162 z"
         id="path7" />
    </g>
  </g>
</svg>
